<svg id="Layer_5" data-name="Layer 5" xmlns="http://www.w3.org/2000/svg" viewBox="0 0 100.69 93.9"><defs><style>.cls-1{fill:#fff;}.cls-2{fill:#ffc19f;}.cls-3{fill:#e0956c;}.cls-4{fill:#870404;}.cls-5{fill:#ff9797;}.cls-6{fill:#701608;}.cls-7{fill:#dd6b5b;}.cls-8{fill:#c4735b;}.cls-9{fill:#8c2f22;}.cls-10{fill:#f9feff;}.cls-11{fill:#773220;}.cls-12{fill:#63190d;}.cls-13{fill:#fefffe;}</style></defs><title>Mesa de trabajo 91</title><path class="cls-1" d="M52.21,5C74.81,5,90.66,17.38,91.9,33a51.31,51.31,0,0,1-1.55,17.5c4.76,2.72,6.38,8.33,4.72,14.4-2.08,7.62-9.15,12.54-15,12.54a9.1,9.1,0,0,1-1.39-.1c-.17,0-.32-.07-.49-.1-5.15,5.47-14.14,11.56-28,11.64H50c-12.91,0-23.35-6-27.51-12-.24,0-.47.11-.71.14a8.88,8.88,0,0,1-1.26.08c-5.85,0-12.95-5-14.95-12.72-1.62-6.25.19-12,5.26-14.55a49.12,49.12,0,0,1-.71-16.16c.66-5.75,1.77-9.58,4.44-13.47-2.41-.66-7.93-4.67-3.28-12.49-.2,3,3.53,3.83,7.17,3.83a18.8,18.8,0,0,0,6.51-1C32.28,6.46,40.37,5,52.19,5h0m0-5h0C39.12,0,30.57,1.76,22.79,6.05a19.37,19.37,0,0,1-4.34.47,12.56,12.56,0,0,1-2.36-.19,5,5,0,0,0-3.32-3.42,5.12,5.12,0,0,0-1.49-.22A5,5,0,0,0,7,5.13c-3.33,5.61-2.74,10-1.65,12.7a12.17,12.17,0,0,0,2.6,4A37.34,37.34,0,0,0,5.15,33.07a55.4,55.4,0,0,0,.18,14.46C.65,51.65-1.15,58.36.73,65.61,3.38,75.82,12.7,82,20.28,82.08,26,88.29,36.65,93.9,50,93.9h.26c14.37-.08,24-5.91,29.83-11.44h0c7.55,0,17-6.07,19.79-16.22,1.9-6.93.35-13.5-3.93-17.71a57.15,57.15,0,0,0,.92-15.9C95.39,13.72,76.6,0,52.21,0Z"/><path class="cls-2" d="M95.07,64.92c-2.25,8.23-10.33,13.32-16.36,12.44s-7.1-7.66-5.95-15.61,7-13.68,13-12.78C94,50.2,97.18,57.19,95.07,64.92Z"/><path class="cls-3" d="M87.79,66.63c-.51,3.48-3.41,5.94-6.48,5.49S76.16,68.48,76.67,65s3.41-5.94,6.48-5.49S88.3,63.14,87.79,66.63Z"/><path class="cls-2" d="M5.57,64.36C7.71,72.61,15.74,77.81,21.78,77s7.2-7.57,6.14-15.53S21.11,47.69,15.07,48.52C6.83,49.64,3.56,56.59,5.57,64.36Z"/><path class="cls-3" d="M13.28,66.15c.46,3.49,3.33,6,6.41,5.58s5.19-3.57,4.73-7.06-3.34-6-6.41-5.57S12.81,62.66,13.28,66.15Z"/><path class="cls-4" d="M10.12,33.65C6.79,62.56,27.15,81.87,50.82,82S94.12,61.21,91.9,33C90.66,17.37,74.8,5,52.19,5,40.37,5,32.28,6.46,25,10.56c-1.69.95-14,2.5-13.68-2.87-4.65,7.82.87,11.83,3.28,12.49C11.89,24.07,10.78,27.9,10.12,33.65Z"/><path class="cls-2" d="M84.57,29.91c.55,15.35-.74,41-5.43,46.34-5,5.7-14.2,12.57-28.91,12.65C36.73,89,25.88,82.44,22,76.18,17.46,68.77,16.1,44.36,16.85,32,17.74,17.41,34.46,14,51,14,66.44,14,84.14,17.65,84.57,29.91Z"/><path class="cls-5" d="M21.84,66.9c-.16,1.67,2,3.24,4.89,3.5s5.31-.87,5.46-2.54-2-3.23-4.9-3.5S22,65.23,21.84,66.9Z"/><path class="cls-5" d="M67.61,68.69c.09,1.67,2.48,2.91,5.35,2.77s5.12-1.61,5-3.29-2.47-2.91-5.34-2.77S67.53,67,67.61,68.69Z"/><path class="cls-6" d="M64.08,69c-.56-2.94-5.07-2.18-12.44-2.23H49.37c-7.37,0-11.88-.71-12.44,2.23-1.08,5.65,6,11.82,13.51,11.85h.13C58.05,80.82,65.16,74.65,64.08,69Z"/><path class="cls-7" d="M50.57,81h-.13a15.3,15.3,0,0,1-7.28-2L43,78.9l.12-.1a11.39,11.39,0,0,1,14.75,0l.12.1-.14.08A15.4,15.4,0,0,1,50.57,81Z"/><path class="cls-1" d="M50.51,70.54c-5.15,0-9.44-1.59-10-3.71l0-.13h20l0,.13C59.93,69,55.65,70.54,50.51,70.54Z"/><path class="cls-8" d="M47.66,63.3A.37.37,0,0,0,48,63a2.67,2.67,0,0,1,5.23,0,.37.37,0,1,0,.74-.1,3.42,3.42,0,0,0-6.71-.05.37.37,0,0,0,.3.43Z"/><path class="cls-9" d="M24.55,40.36a1,1,0,0,0,.69-.3c2.48-2.41,7.33-3.27,11.31-2a1.06,1.06,0,1,0,.65-2c-4.75-1.53-10.4-.48-13.44,2.49a1.07,1.07,0,0,0,0,1.5A1,1,0,0,0,24.55,40.36Z"/><path class="cls-9" d="M75.88,41a1.08,1.08,0,0,0,.8-.32,1.06,1.06,0,0,0,0-1.5c-3.06-3-8.73-3.94-13.46-2.37a1.06,1.06,0,0,0-.67,1.34,1.07,1.07,0,0,0,1.34.67c4-1.32,8.83-.51,11.32,1.88A1.08,1.08,0,0,0,75.88,41Z"/><path class="cls-10" d="M58.8,61.48S70,65.38,74.5,59.53C79.94,52.4,72,46.45,66.79,47.44,61.93,48.36,57.44,52.43,58.8,61.48Z"/><path class="cls-11" d="M75.58,50.28a8.5,8.5,0,0,0-7.89-3.37c-3.14.23-6.37,2.37-7.32,4.64a9.92,9.92,0,0,1,6.49-3.75,8.45,8.45,0,0,1,8.26,3.48,7.63,7.63,0,0,1-.77,8.43C76.68,58,77.7,53.08,75.58,50.28Z"/><path class="cls-12" d="M61.86,54a5.09,5.09,0,1,0,6.68-2.67A5.09,5.09,0,0,0,61.86,54Z"/><path class="cls-13" d="M62.29,53.17a1.42,1.42,0,1,0,1.86-.74A1.42,1.42,0,0,0,62.29,53.17Z"/><path class="cls-10" d="M41.69,61.09s-11.41,3.33-15.58-2.74C21,51,29.24,45.41,34.43,46.67,39.23,47.83,43.51,52.12,41.69,61.09Z"/><path class="cls-11" d="M25.5,49.05a8.52,8.52,0,0,1,8.06-3c3.12.39,6.23,2.69,7.07,5A10,10,0,0,0,34.34,47a8.47,8.47,0,0,0-8.43,3.06,7.65,7.65,0,0,0,.34,8.46C24,56.67,23.24,51.75,25.5,49.05Z"/><path class="cls-12" d="M29.08,53a5.09,5.09,0,1,0,6.69-2.68A5.1,5.1,0,0,0,29.08,53Z"/><path class="cls-13" d="M29.52,52.18a1.41,1.41,0,1,0,1.85-.74A1.4,1.4,0,0,0,29.52,52.18Z"/><path class="cls-4" d="M77.42,14.89c-6-3.31-17.35-5.15-27.51-5.36-11-.23-22.47,1.07-28.6,4.89-4,2.52-9.14,21.86-7.19,20.3,2.24-1.78,5.79-3.34,10.06-4.61A39.94,39.94,0,0,1,28.34,22c-.23,1.12-.63,5.1-.83,7.22a96,96,0,0,1,17.32-2.43,18.23,18.23,0,0,1,1.06-5.33c.68.68,2,3.86,2.6,5.21.89,0,1.78,0,2.65,0a100.4,100.4,0,0,1,18.59,1.79c-.18-7-.19-9.15-.24-8.68a24.61,24.61,0,0,1,1.92,9.07,42.2,42.2,0,0,1,4.81,1.48c.17-2,.66-5.31.73-5.86.62.38,1.74,4.89,2.13,7.06a55.3,55.3,0,0,1,6.83,3.9C88.34,37,82.28,17.57,77.42,14.89Z"/></svg>