<svg xmlns="http://www.w3.org/2000/svg" width="264.398" height="122.788" viewBox="0 0 264.398 122.788"><g transform="translate(16.255 99.412)" fill="#fff" stroke-linecap="round" stroke-linejoin="round"><path d="M 156.0081634521484 13.37586307525635 C 153.4179229736328 13.37586307525635 150.9818115234375 12.57608795166016 148.9244842529297 11.05646133422852 C 147.9165649414063 11.49496173858643 146.8403015136719 11.79564189910889 145.7183990478516 11.94524765014648 L 145.0603485107422 12.03301620483398 L 144.1100463867188 12.05247783660889 C 141.5153961181641 12.05247783660889 139.0402069091797 11.22463226318359 136.9520111083984 9.658516883850098 C 134.9055480957031 8.123676300048828 133.4426879882813 6.019079208374023 132.7117309570313 3.60178279876709 C 132.2598724365234 5.188281536102295 131.5225067138672 6.554119110107422 130.5222015380859 7.776785850524902 C 128.4403228759766 10.32109355926514 125.4721603393555 11.84363174438477 122.1641616821289 12.06432437896729 L 121.8317031860352 12.08651638031006 L 121.340202331543 12.09186267852783 C 118.5448532104492 12.09186267852783 115.9288177490234 11.16028594970703 113.7748947143555 9.39790153503418 C 111.4000473022461 7.454901218414307 109.8778915405273 4.671555042266846 109.4891586303711 1.56093966960907 L 108.476318359375 -11.88725280761719 L 107.4023895263672 -27.56463813781738 C 107.3057327270508 -29.13404273986816 107.2173385620117 -30.66905975341797 107.1370697021484 -32.17164611816406 C 106.4442977905273 -32.44798278808594 105.7666931152344 -32.7979621887207 105.1176376342773 -33.21825790405273 C 103.9486465454102 -31.22784423828125 102.9325942993164 -28.90265274047852 102.0677795410156 -26.23456001281738 C 100.0377349853516 -19.89829063415527 98.93788909912109 -11.77198314666748 98.80912017822266 -2.113675832748413 L 88.81000518798828 -0.9629834294319153 L 98.81000518798828 -0.9629834294319153 L 98.81000518798828 3.177555084228516 L 97.55202484130859 4.746744632720947 C 97.24485778808594 5.367805004119873 96.86062622070313 6.003825664520264 96.38212585449219 6.641862869262695 C 94.01085662841797 9.506147384643555 91.00363922119141 11.04324340820313 87.7799072265625 11.25788879394531 L 87.54466247558594 11.28401660919189 L 86.75535583496094 11.29740142822266 C 83.31927490234375 11.29740142822266 80.0528564453125 9.785747528076172 77.79362487792969 7.150132179260254 L 76.7872314453125 5.97607421875 C 73.13764190673828 8.63316535949707 69.09848022460938 10.33493709564209 64.74139404296875 11.04632472991943 C 63.09416198730469 11.29509353637695 61.62516021728516 11.40497779846191 60.21297073364258 11.40497779846191 C 51.56958389282227 11.40497779846191 44.22296905517578 7.201900959014893 39.52643203735352 -0.4300218820571899 C 35.63016128540039 -6.761406421661377 33.83750915527344 -14.77283000946045 34.19823837280273 -24.24167633056641 C 34.19602203369141 -24.61615180969238 34.20332336425781 -25.02645874023438 34.21994018554688 -25.46151542663574 C 33.53190994262695 -27.70247650146484 33.54683685302734 -30.12360572814941 34.31316375732422 -32.46993255615234 C 29.72304153442383 -28.88554382324219 24.19168472290039 -25.68539810180664 17.73898124694824 -22.88571357727051 C 17.95568656921387 -15.29777336120605 18.35826110839844 -8.452797889709473 18.94096946716309 -2.466829538345337 C 19.34139251708984 0.7057088613510132 18.26573753356934 4.136093616485596 15.95962333679199 6.672977924346924 C 14.00193023681641 8.826400756835938 11.43789196014404 10.16840076446533 8.544392585754395 10.55424690246582 L 7.886392116546631 10.64201641082764 L 6.961084365844727 10.65982437133789 C 4.056007385253906 10.65986251831055 1.266007542610168 9.57801628112793 -0.8949539661407471 7.613631725311279 C -3.022761583328247 5.679208755493164 -4.360338687896729 3.165708780288696 -4.763453960418701 0.3445550501346588 C -5.77172327041626 -10.0892915725708 -6.254992485046387 -22.3254451751709 -6.254992485046387 -36.48702239990234 C -6.254992485046387 -40.36867523193359 -6.201415538787842 -46.28113555908203 -6.093569278717041 -54.22421264648438 C -5.987377166748047 -62.0465202331543 -5.933992385864258 -67.93975067138672 -5.933992385864258 -71.90402221679688 C -5.933992385864258 -75.05832672119141 -4.684684753417969 -78.04463958740234 -2.416223287582397 -80.31290435791016 C -0.1485308706760406 -82.58059692382813 2.837430715560913 -83.82978820800781 5.991238594055176 -83.83002471923828 C 6.294471263885498 -83.83002471923828 6.594757080078125 -83.81929779052734 6.892298698425293 -83.79810333251953 C 10.2853946685791 -85.58243560791016 13.95412158966064 -86.8035888671875 17.85623741149902 -87.44329071044922 C 19.91454696655273 -87.78071594238281 21.90400695800781 -87.94398498535156 23.82262229919434 -87.94398498535156 C 27.70919990539551 -87.94398498535156 31.4224681854248 -87.26824951171875 34.85931396484375 -85.93560028076172 C 41.92435455322266 -83.47452545166016 47.11823654174805 -78.43179321289063 49.56100845336914 -71.46990966796875 C 50.83313369750977 -67.94324493408203 51.2618293762207 -64.16654205322266 50.84579467773438 -60.18210983276367 C 54.00381088256836 -62.10937881469727 57.09856033325195 -62.97496795654297 59.71477508544922 -63.31132888793945 C 60.72550582885742 -63.43413543701172 61.63143157958984 -63.48809814453125 62.50392913818359 -63.48809814453125 C 66.09327697753906 -63.48809814453125 69.35942840576172 -62.58821487426758 72.21162414550781 -60.81348419189453 C 75.79035186767578 -58.58675384521484 78.40950775146484 -55.22725296020508 79.78585052490234 -51.09825134277344 C 79.81757354736328 -50.99685287475586 79.84864044189453 -50.89516067504883 79.87893676757813 -50.79358291625977 C 81.96500396728516 -52.37010955810547 84.50907897949219 -53.22798156738281 87.15150451660156 -53.22798156738281 C 88.20294952392578 -53.22798156738281 89.22829437255859 -53.09450912475586 90.21035003662109 -52.83518981933594 C 94.05167388916016 -57.10640716552734 98.54850006103516 -60.36343002319336 103.701545715332 -62.64429092407227 L 105.6348190307617 -63.49998474121094 L 106.6553726196289 -63.5627555847168 C 106.9942398071289 -68.89865875244141 107.8603286743164 -73.20235443115234 109.2865447998047 -76.72598266601563 C 110.9329681396484 -81.03733062744141 113.6243896484375 -84.45282745361328 117.2150039672852 -86.69698333740234 C 120.1267013549805 -88.50432586669922 123.3357009887695 -89.41244506835938 126.7791976928711 -89.41244506835938 C 128.6452789306641 -89.41244506835938 130.5719299316406 -89.13591003417969 132.5057067871094 -88.59044647216797 C 136.30810546875 -87.54688262939453 141.2442169189453 -85.01335144042969 144.8426055908203 -79.022705078125 C 145.4872283935547 -80.2940673828125 146.3857116699219 -81.48786926269531 147.5136260986328 -82.51329040527344 C 149.7378540039063 -84.53536987304688 152.6208190917969 -85.64898681640625 155.6314697265625 -85.64898681640625 C 159.0013580322266 -85.64898681640625 162.1040496826172 -84.27771759033203 164.3679351806641 -81.78775024414063 C 166.3905029296875 -79.56278991699219 167.5040130615234 -76.66094207763672 167.5040130615234 -73.61602020263672 C 167.3213043212891 -69.11381530761719 167.1695861816406 -64.72031402587891 167.0488739013672 -60.43770599365234 C 170.0570983886719 -62.18634796142578 172.9914855957031 -62.99025344848633 175.48876953125 -63.31132888793945 C 176.49951171875 -63.43413543701172 177.4053955078125 -63.48809814453125 178.2778930664063 -63.48809814453125 C 181.8673095703125 -63.48809814453125 185.1335144042969 -62.58821487426758 187.9856567382813 -60.81344604492188 C 190.27294921875 -59.39025497436523 192.1681365966797 -57.5045280456543 193.5975341796875 -55.25065994262695 C 193.8668975830078 -55.50691986083984 194.1446685791016 -55.7580451965332 194.4300384521484 -56.003173828125 C 198.7812805175781 -59.74075317382813 204.0017395019531 -61.94005966186523 209.9463958740234 -62.53998184204102 C 210.9862365722656 -62.64490509033203 212.0135040283203 -62.69663619995117 213.0274658203125 -62.69663619995117 C 217.7755126953125 -62.69663619995117 222.3106994628906 -61.5648307800293 226.5071258544922 -59.33271408081055 C 232.4575042724609 -56.16767501831055 236.3921966552734 -50.94186782836914 237.8858947753906 -44.22025299072266 C 238.427734375 -40.63479232788086 237.838623046875 -37.83428955078125 236.3199310302734 -35.36606216430664 C 234.5982360839844 -32.56852340698242 231.8995819091797 -30.65329170227051 228.7205505371094 -29.97233009338379 L 227.6850128173828 -29.75052261352539 L 226.2213897705078 -29.70671463012695 C 224.9555511474609 -29.70671463012695 223.6994476318359 -29.91194343566895 222.4975433349609 -30.30970573425293 C 223.3959197998047 -29.5593433380127 224.1959228515625 -28.87430763244629 224.8962707519531 -28.2563304901123 C 226.5714721679688 -26.6920223236084 228.1499328613281 -24.95679092407227 229.828857421875 -22.82413673400879 C 232.0115051269531 -20.05159950256348 233.5281219482422 -17.03748321533203 234.3366546630859 -13.86544513702393 C 235.1528472900391 -10.66332912445068 235.2587432861328 -7.314906597137451 234.6513214111328 -3.913137197494507 C 233.4534301757813 2.232362747192383 229.8853912353516 6.950708866119385 224.5751190185547 9.530055046081543 C 221.8140106201172 10.86301612854004 218.7993927001953 11.53359317779541 215.5933532714844 11.53367042541504 C 214.1826934814453 11.5337085723877 212.7059326171875 11.40359306335449 211.1634674072266 11.12674713134766 C 207.0704345703125 10.35282421112061 203.3058166503906 8.775478363037109 199.8817749023438 6.421478271484375 C 198.4313659667969 5.424317836761475 197.1241149902344 4.322096347808838 195.9644927978516 3.120108366012573 C 195.6851654052734 3.384036064147949 195.4024200439453 3.644789934158325 195.11669921875 3.901939630508423 C 190.8290863037109 7.76074743270874 185.91650390625 10.16447830200195 180.5153961181641 11.04632472991943 C 178.8681640625 11.29509353637695 177.3991546630859 11.40497779846191 175.9869689941406 11.40497779846191 C 172.1179046630859 11.40497779846191 168.5092620849609 10.56307029724121 165.2812652587891 8.948128700256348 C 165.2510986328125 8.985867500305176 165.2208099365234 9.023317337036133 165.1901550292969 9.060786247253418 C 163.1087036132813 11.60490131378174 160.1403961181641 13.12763214111328 156.8321685791016 13.34832382202148 L 156.4996948242188 13.37051677703857 L 156.0081634521484 13.37586307525635 Z M 175.7200012207031 -12.89994525909424 L 176.7414245605469 -12.55871391296387 C 177.0569305419922 -12.607253074646 178.0169677734375 -12.75494480133057 179.4568176269531 -14.02536773681641 C 181.0418853759766 -15.42398357391357 182.3798522949219 -17.12044525146484 183.5470428466797 -19.2116756439209 C 183.7519683837891 -19.52483367919922 183.9611358642578 -19.82437896728516 184.17431640625 -20.11045265197754 C 182.8990936279297 -19.18851852416992 181.5404663085938 -18.37308883666992 180.1006927490234 -17.66629028320313 C 178.2743072509766 -16.78804206848145 176.4154510498047 -16.13195991516113 174.5279541015625 -15.69654178619385 C 174.8251800537109 -14.60921287536621 175.2107238769531 -13.66977787017822 175.681884765625 -12.89375305175781 L 175.7200012207031 -12.89994525909424 Z M 59.94600677490234 -12.89994525909424 L 60.96743011474609 -12.55871391296387 C 61.28293228149414 -12.607253074646 62.24296951293945 -12.75494480133057 63.68281555175781 -14.02536773681641 C 65.26792907714844 -15.42402172088623 66.60585021972656 -17.1204833984375 67.77304840087891 -19.2116756439209 C 67.97801208496094 -19.52486228942871 68.18715667724609 -19.82436370849609 68.40036773681641 -20.11045455932617 C 67.12514495849609 -19.18851852416992 65.76651000976563 -18.37308883666992 64.32673645019531 -17.66629028320313 C 62.50030517578125 -16.78804206848145 60.6414794921875 -16.13197135925293 58.75397491455078 -15.69655227661133 C 59.05119705200195 -14.60922145843506 59.43674468994141 -13.66976451873779 59.90789031982422 -12.89375305175781 L 59.94600677490234 -12.89994525909424 Z M 191.1001434326172 -27.32537269592285 C 190.2646179199219 -26.08506011962891 189.3572387695313 -24.92996025085449 188.3795166015625 -23.86169052124023 C 189.124267578125 -24.2654914855957 189.901123046875 -24.5784797668457 190.7090911865234 -24.80929183959961 L 192.0556182861328 -25.19398307800293 L 192.5912933349609 -25.21549987792969 C 192.055419921875 -25.91094589233398 191.5579376220703 -26.6148796081543 191.1001434326172 -27.32537269592285 Z M 74.800537109375 -26.56948852539063 C 74.11367034912109 -25.61259078979492 73.38194274902344 -24.70997619628906 72.60557556152344 -23.86171722412109 C 73.29729461669922 -24.23675727844238 74.01692199707031 -24.53353691101074 74.76319122314453 -24.75879859924316 C 74.77440643310547 -25.32816505432129 74.78685760498047 -25.93160629272461 74.800537109375 -26.56948852539063 Z M 212.2477569580078 -38.79253005981445 C 212.2890014648438 -38.74666213989258 212.3315277099609 -38.69985961914063 212.3752746582031 -38.65225219726563 C 212.801513671875 -38.27067184448242 213.9701232910156 -37.28779983520508 215.7641754150391 -35.81222915649414 C 215.2945098876953 -36.63728332519531 214.9216003417969 -37.52080154418945 214.6566925048828 -38.44809722900391 C 214.6460418701172 -38.61671447753906 214.0517730712891 -38.86809921264648 212.9667358398438 -38.86809921264648 C 212.7059020996094 -38.84621429443359 212.4668884277344 -38.82097625732422 212.2477569580078 -38.79253005981445 Z M 17.88939666748047 -62.62529754638672 C 17.8631706237793 -59.89867782592773 17.81887245178223 -56.50241470336914 17.75631523132324 -52.43667602539063 C 17.74222373962402 -51.52052688598633 17.72906112670898 -50.63213348388672 17.71683120727539 -49.7715950012207 C 21.73634147644043 -52.48450088500977 24.50757026672363 -55.40229034423828 25.90939140319824 -58.43959808349609 C 27.19500732421875 -61.34548187255859 27.23050689697266 -63.05717468261719 27.06073760986328 -63.53656005859375 C 25.73985290527344 -63.99106216430664 24.97808456420898 -64.11175537109375 24.09173774719238 -64.11175537109375 C 23.18420028686523 -64.11175537109375 22.15073776245117 -63.98648452758789 21.02008438110352 -63.73944473266602 C 19.84801483154297 -63.48338317871094 18.81538963317871 -63.11781692504883 17.88939666748047 -62.62529754638672 Z M 130.3393859863281 -55.45966720581055 C 130.7750854492188 -55.37535858154297 131.1946563720703 -55.27286148071289 131.5981750488281 -55.15295028686523 C 131.8308563232422 -55.67007446289063 132.1030426025391 -56.17366409301758 132.4130706787109 -56.65854644775391 C 131.5956420898438 -57.55940628051758 130.9294128417969 -58.55992126464844 130.4268951416016 -59.62994766235352 C 130.4061889648438 -59.64062881469727 130.385498046875 -59.65137100219727 130.3648681640625 -59.66217041015625 C 130.3471069335938 -58.2885627746582 130.338623046875 -56.88803482055664 130.3393859863281 -55.45966720581055 Z" stroke="none"/><path d="M 156.0081939697266 3.375843286514282 C 156.0602264404297 3.375843286514282 156.1130523681641 3.374059200286865 156.16650390625 3.370497226715088 C 156.7015075683594 3.334847450256348 157.1295166015625 3.120847463607788 157.4505157470703 2.728497266769409 C 157.7714538574219 2.336147308349609 157.9320068359375 1.890347361564636 157.9320068359375 1.390997290611267 C 156.4340057373047 -18.93900299072266 156.2913665771484 -43.94135284423828 157.5040130615234 -73.61600494384766 C 157.5040130615234 -74.18665313720703 157.3256683349609 -74.66815185546875 156.9690093994141 -75.06050109863281 C 156.6123046875 -75.45285034179688 156.16650390625 -75.64900207519531 155.6315155029297 -75.64900207519531 C 155.0965118408203 -75.64900207519531 154.6328125 -75.47064971923828 154.2405090332031 -75.11400604248047 C 153.8481597900391 -74.75735473632813 153.6520080566406 -74.32935333251953 153.6520080566406 -73.83000183105469 C 152.4393157958984 -43.94135284423828 152.5820159912109 -18.79635238647461 154.0800170898438 1.604997396469116 C 154.1513061523438 2.175647258758545 154.3831634521484 2.621497392654419 154.7755126953125 2.942497253417969 C 155.1286163330078 3.231424808502197 155.5394744873047 3.375843286514282 156.0081939697266 3.375843286514282 M 121.3401947021484 2.091843128204346 C 121.3922271728516 2.091841220855713 121.4450607299805 2.090059280395508 121.4985122680664 2.08649730682373 C 122.0335083007813 2.050847291946411 122.4615097045898 1.836847305297852 122.7825088500977 1.444497346878052 C 123.1035079956055 1.052147388458252 123.2640151977539 0.6063473224639893 123.2640151977539 0.1069973483681679 L 122.3010101318359 -12.94700241088867 C 121.8730087280273 -18.72500228881836 121.5163116455078 -23.89665222167969 121.2310104370117 -28.46200180053711 C 120.9456634521484 -33.02735137939453 120.7316589355469 -37.37865447998047 120.5890121459961 -41.5160026550293 C 121.5163116455078 -41.58735275268555 122.8181610107422 -41.6765022277832 124.494514465332 -41.78350448608398 C 126.1708602905273 -41.8905029296875 127.3656616210938 -41.94400405883789 128.0790100097656 -41.94400405883789 C 128.5783538818359 -41.94400405883789 129.0063171386719 -42.14015197753906 129.3630065917969 -42.53250122070313 C 129.7196655273438 -42.92485427856445 129.8980102539063 -43.38850402832031 129.8980102539063 -43.92350387573242 C 129.8980102539063 -44.45850372314453 129.7018127441406 -44.90435409545898 129.3095092773438 -45.26100158691406 C 128.9171600341797 -45.61765289306641 128.4356689453125 -45.79600143432617 127.8650131225586 -45.79600143432617 C 127.1516647338867 -45.72465133666992 125.9568099975586 -45.65335083007813 124.2805099487305 -45.58200454711914 C 122.6041641235352 -45.51065444946289 121.3380126953125 -45.43935394287109 120.4820098876953 -45.36800384521484 C 120.3393096923828 -50.71800231933594 120.3036651611328 -55.74700164794922 120.3750076293945 -60.45500183105469 C 120.4463119506836 -65.30565643310547 121.0170135498047 -69.01499938964844 122.0870132446289 -71.58300018310547 C 122.7290115356445 -73.22365570068359 123.5493087768555 -74.36500549316406 124.5480117797852 -75.00700378417969 C 125.1900482177734 -75.39222717285156 125.9475021362305 -75.58480072021484 126.8206939697266 -75.58480072021484 C 127.4027252197266 -75.58480072021484 128.0362701416016 -75.49918365478516 128.7210083007813 -75.3280029296875 C 131.0750122070313 -74.68600463867188 132.8583679199219 -72.76000213623047 134.0710144042969 -69.55000305175781 C 134.2850189208984 -69.05065155029297 134.6238098144531 -68.69400024414063 135.0875091552734 -68.48000335693359 C 135.3404235839844 -68.36327362060547 135.5986328125 -68.30490112304688 135.8621520996094 -68.30490875244141 C 136.0817565917969 -68.30490875244141 136.3050384521484 -68.34543609619141 136.5320129394531 -68.42650604248047 C 137.0313110351563 -68.60480499267578 137.3880157470703 -68.92580413818359 137.6020050048828 -69.38950347900391 C 137.8160095214844 -69.8531494140625 137.8516540527344 -70.33465576171875 137.7090148925781 -70.83399963378906 C 136.0683135986328 -75.25665283203125 133.4290161132813 -77.96735382080078 129.791015625 -78.96600341796875 C 128.7357025146484 -79.26364898681641 127.7318878173828 -79.41244506835938 126.7792282104492 -79.41244506835938 C 125.2204742431641 -79.41244506835938 123.7989501953125 -79.01393890380859 122.5150146484375 -78.21700286865234 C 120.8030090332031 -77.14700317382813 119.4833145141602 -75.39935302734375 118.5560150146484 -72.9739990234375 C 117.3433151245117 -69.97800445556641 116.6656646728516 -65.80500030517578 116.5230102539063 -60.45500183105469 C 116.45166015625 -55.74700164794922 116.4873123168945 -50.68235397338867 116.630012512207 -45.26100158691406 C 115.7026596069336 -45.22532653808594 114.8199081420898 -45.20748901367188 113.9817504882813 -45.20748901367188 C 113.1435852050781 -45.20748901367188 112.3500137329102 -45.22532653808594 111.6010131835938 -45.26100158691406 C 111.0303115844727 -45.26100158691406 110.5488128662109 -45.0826530456543 110.1565093994141 -44.72600173950195 C 109.76416015625 -44.36935424804688 109.5680084228516 -43.92350387573242 109.5680084228516 -43.38850402832031 C 109.5680084228516 -42.8535041809082 109.7463150024414 -42.38985443115234 110.1030120849609 -41.99750137329102 C 110.4596633911133 -41.60515213012695 110.8876647949219 -41.40900421142578 111.3870086669922 -41.40900421142578 C 112.2073364257813 -41.37332916259766 113.0633392333984 -41.35549163818359 113.9550018310547 -41.35549163818359 C 114.8466720581055 -41.35549163818359 115.7740097045898 -41.37332916259766 116.7370147705078 -41.40900421142578 C 116.8796615600586 -37.27165222167969 117.0936584472656 -32.88465118408203 117.3790130615234 -28.24800300598145 L 118.4490127563477 -12.62600231170654 C 118.8770141601563 -6.848002433776855 119.1980133056641 -2.532352685928345 119.4120101928711 0.3209973573684692 C 119.4833145141602 0.8916473388671875 119.7151641845703 1.337497353553772 120.1075134277344 1.658497333526611 C 120.4606170654297 1.94742476940155 120.8714752197266 2.091861248016357 121.3401947021484 2.091843128204346 M 144.1099700927734 2.052457809448242 C 144.2037200927734 2.052457809448242 144.2992401123047 2.045970439910889 144.3965148925781 2.032997369766235 C 144.9315185546875 1.961647391319275 145.3595123291016 1.711997389793396 145.6805114746094 1.283997297286987 C 146.0015106201172 0.8559973239898682 146.1263122558594 0.3923473358154297 146.0550079345703 -0.1070026531815529 C 144.414306640625 -12.44765281677246 143.8793182373047 -29.17535209655762 144.4500122070313 -50.29000091552734 C 144.4500122070313 -50.78935241699219 144.2716674804688 -51.23515319824219 143.9150085449219 -51.62750244140625 C 143.5583038330078 -52.01985168457031 143.1125183105469 -52.21600341796875 142.5775146484375 -52.21600341796875 C 142.0425109863281 -52.21600341796875 141.5788116455078 -52.03765106201172 141.1865081787109 -51.68100357055664 C 140.7941589355469 -51.3243522644043 140.5980072021484 -50.86065292358398 140.5980072021484 -50.29000091552734 C 140.0273132324219 -29.31800270080566 140.5623168945313 -12.44765281677246 142.2030181884766 0.3209973573684692 C 142.2743682861328 0.8916473388671875 142.5240173339844 1.337497353553772 142.9520111083984 1.658497333526611 C 143.3021850585938 1.92113196849823 143.6881713867188 2.052457809448242 144.1099700927734 2.052457809448242 M 215.5930938720703 1.533667683601379 C 217.2891082763672 1.533623337745667 218.8269653320313 1.20072340965271 220.2060089111328 0.5349973440170288 C 222.7026672363281 -0.6776526570320129 224.2363128662109 -2.746352672576904 224.8070068359375 -5.671002864837646 C 225.1636657714844 -7.668352603912354 225.1101684570313 -9.576502799987793 224.6465148925781 -11.39550304412842 C 224.182861328125 -13.21450233459473 223.2911682128906 -14.9621524810791 221.9715118408203 -16.63850212097168 C 220.6518096923828 -18.31485176086426 219.4213104248047 -19.68800354003906 218.2800140380859 -20.75800323486328 C 217.0673675537109 -21.8280029296875 215.5336608886719 -23.11200332641602 213.6790161132813 -24.6100025177002 C 209.1849670410156 -28.24800300598145 206.2960052490234 -30.67335319519043 205.0120086669922 -31.8860034942627 C 202.5866546630859 -34.52535247802734 201.2670135498047 -36.98635101318359 201.0530090332031 -39.26900100708008 C 200.8390045166016 -41.83700180053711 201.7128143310547 -43.97700119018555 203.6745147705078 -45.68900299072266 C 205.6361541748047 -47.4010009765625 208.1863098144531 -48.43535232543945 211.3250122070313 -48.7920036315918 C 211.8830413818359 -48.84273529052734 212.4302215576172 -48.86809539794922 212.9668426513672 -48.86809539794922 C 215.4484100341797 -48.86809539794922 217.7010650634766 -48.32552337646484 219.7245178222656 -47.24050140380859 C 222.1855163574219 -45.92085266113281 223.7013092041016 -43.9056510925293 224.2720184326172 -41.19500350952148 C 224.4146575927734 -40.69565200805664 224.7178039550781 -40.30335235595703 225.1815185546875 -40.01800155639648 C 225.5187225341797 -39.81047058105469 225.8653259277344 -39.70672607421875 226.2214202880859 -39.70672607421875 C 226.3549346923828 -39.70672607421875 226.4898376464844 -39.7213249206543 226.6260070800781 -39.75050354003906 C 227.1253662109375 -39.85750198364258 227.5176544189453 -40.14285278320313 227.8030090332031 -40.60650253295898 C 228.0883178710938 -41.07015228271484 228.1953125 -41.55165100097656 228.1240081787109 -42.05100250244141 C 227.2680053710938 -45.90300369262695 225.1636657714844 -48.72065353393555 221.8110046386719 -50.50400161743164 C 219.0627899169922 -51.9658203125 216.1352691650391 -52.69663238525391 213.0276336669922 -52.69663238525391 C 212.3440856933594 -52.69663238525391 211.6514434814453 -52.6612434387207 210.9505157470703 -52.59050369262695 C 207.0628051757813 -52.19815444946289 203.7280120849609 -50.80715179443359 200.9460144042969 -48.41750335693359 C 198.1640167236328 -46.02785110473633 196.9156646728516 -42.90700149536133 197.2010040283203 -39.05500411987305 C 197.4863128662109 -35.77365112304688 199.1983184814453 -32.49235153198242 202.3370056152344 -29.21100234985352 C 203.4783172607422 -27.99835205078125 206.4386596679688 -25.46600341796875 211.218017578125 -21.6140022277832 C 214.9273071289063 -18.61800193786621 217.6201629638672 -15.99650287628174 219.2965087890625 -13.74950218200684 C 220.9728088378906 -11.50250244140625 221.5256652832031 -9.023653030395508 220.9550170898438 -6.313002586364746 C 220.6696624755859 -4.743652820587158 219.8671569824219 -3.638002634048462 218.5475158691406 -2.996002674102783 C 217.6990966796875 -2.583271503448486 216.7108001708984 -2.376938819885254 215.5823364257813 -2.376938819885254 C 214.9554901123047 -2.376938819885254 214.2852783203125 -2.440636873245239 213.5720062255859 -2.568002700805664 C 211.5033111572266 -2.924652576446533 209.5951538085938 -3.709352731704712 207.8475189208984 -4.922002792358398 C 206.0998077392578 -6.134652614593506 204.9050140380859 -7.525652885437012 204.2630157470703 -9.095003128051758 C 204.0490112304688 -9.594352722167969 203.6923065185547 -9.933152198791504 203.1930084228516 -10.1115026473999 C 202.9433288574219 -10.2006778717041 202.6936798095703 -10.24526500701904 202.4440155029297 -10.24526500701904 C 202.1943511962891 -10.24526500701904 201.9446868896484 -10.2006778717041 201.6950073242188 -10.1115026473999 C 201.1956634521484 -9.933152198791504 200.8568115234375 -9.594352722167969 200.6785125732422 -9.095003128051758 C 200.5001678466797 -8.59565258026123 200.4823150634766 -8.096352577209473 200.6250152587891 -7.597002506256104 C 201.6236572265625 -5.314352512359619 203.2643127441406 -3.388352632522583 205.5470123291016 -1.819002628326416 C 207.8296661376953 -0.2496526539325714 210.2906646728516 0.7846473455429077 212.9300079345703 1.283997297286987 C 213.8574523925781 1.450467705726624 214.7449188232422 1.533689856529236 215.5930938720703 1.533667683601379 M 175.9869689941406 1.404948353767395 C 176.9220733642578 1.404948353767395 177.8945770263672 1.328952550888062 178.9040069580078 1.176997303962708 C 182.3993072509766 0.6063473224639893 185.5736541748047 -0.9630026817321777 188.4270172119141 -3.531002759933472 C 191.2803039550781 -6.099002838134766 193.7056579589844 -9.059352874755859 195.7030181884766 -12.41200256347656 C 195.9170074462891 -12.91135311126709 195.9526672363281 -13.41065311431885 195.8100128173828 -13.91000270843506 C 195.6673126220703 -14.40935230255127 195.3641662597656 -14.78385257720947 194.9004669189453 -15.03350257873535 C 194.6053924560547 -15.19238376617432 194.3031463623047 -15.27180862426758 193.9936218261719 -15.27180862426758 C 193.8167877197266 -15.27180862426758 193.6375427246094 -15.24586868286133 193.4560089111328 -15.19400310516357 C 192.9566650390625 -15.05135250091553 192.5643157958984 -14.7660026550293 192.2790069580078 -14.33800220489502 C 190.5670166015625 -11.27065277099609 188.4983673095703 -8.66700267791748 186.0730133056641 -6.527002811431885 C 183.6476593017578 -4.387002468109131 181.0440063476563 -3.103002548217773 178.2620086669922 -2.675002574920654 C 177.4886932373047 -2.5499107837677 176.7444458007813 -2.487369537353516 176.0291442871094 -2.487369537353516 C 172.2576751708984 -2.487369537353516 169.2926177978516 -4.226244926452637 167.1340179443359 -7.704002857208252 C 164.7086639404297 -11.69865226745605 163.6029663085938 -17.04865264892578 163.8170166015625 -23.75400352478027 C 163.8170166015625 -24.46735191345215 163.8526611328125 -25.1450023651123 163.9240112304688 -25.78700256347656 C 165.5987243652344 -25.29614067077637 167.2381439208984 -25.05071830749512 168.8427429199219 -25.05074310302734 C 171.2022247314453 -25.05077934265137 173.4861450195313 -25.5815258026123 175.6940155029297 -26.64300346374512 C 179.6173095703125 -28.56900215148926 182.6133117675781 -31.77900314331055 184.6820068359375 -36.27300262451172 C 186.6793060302734 -40.62435150146484 187.1430053710938 -44.51200103759766 186.0730133056641 -47.93600082397461 C 185.4310150146484 -49.86200332641602 184.3074645996094 -51.3243522644043 182.7025146484375 -52.32300186157227 C 181.4540863037109 -53.09978485107422 179.9794158935547 -53.48811721801758 178.2778472900391 -53.48811721801758 C 177.7918243408203 -53.48811721801758 177.2869873046875 -53.45639801025391 176.7640075683594 -53.39300155639648 C 171.7706604003906 -52.75100326538086 167.6690063476563 -49.25565338134766 164.4589538574219 -42.90700149536133 C 162.6756591796875 -39.34035110473633 161.3916625976563 -35.23865127563477 160.6070098876953 -30.60200309753418 C 160.2503051757813 -30.45935249328613 159.9650115966797 -30.17400360107422 159.7510070800781 -29.74600219726563 C 159.3230133056641 -28.8900032043457 159.4656677246094 -28.1410026550293 160.1790161132813 -27.49900245666504 C 160.0363159179688 -26.28635215759277 159.9650115966797 -25.07365226745605 159.9650115966797 -23.86100196838379 C 159.6796569824219 -16.37100219726563 160.9636688232422 -10.30765247344971 163.8170166015625 -5.671002864837646 C 166.719970703125 -0.9536244869232178 170.7765045166016 1.404948353767395 175.9869689941406 1.404948353767395 M 178.2636413574219 -49.61530303955078 C 180.3588256835938 -49.61530303955078 181.7137603759766 -48.66316223144531 182.3280181884766 -46.75900268554688 C 183.1126556396484 -44.26235198974609 182.7203063964844 -41.302001953125 181.1510162353516 -37.87800216674805 C 179.5103149414063 -34.2400016784668 177.1206665039063 -31.6363525390625 173.9820098876953 -30.06700325012207 C 172.3624114990234 -29.29577255249023 170.6807250976563 -28.91019058227539 168.9360504150391 -28.91025924682617 C 167.4533538818359 -28.91031646728516 165.9250335693359 -29.18889808654785 164.3520050048828 -29.74600219726563 C 165.0653076171875 -34.0260009765625 166.2423095703125 -37.84235382080078 167.8830108642578 -41.19500350952148 C 170.5223083496094 -46.33100128173828 173.6253051757813 -49.11300277709961 177.1920166015625 -49.5410041809082 C 177.5685577392578 -49.59054565429688 177.9256286621094 -49.61530303955078 178.2636413574219 -49.61530303955078 M 60.21296691894531 1.404948353767395 C 61.1480827331543 1.404948353767395 62.12057876586914 1.328952550888062 63.13001251220703 1.176997303962708 C 66.62535858154297 0.6063473224639893 69.79965972900391 -0.9630026817321777 72.65301513671875 -3.531002759933472 C 75.50630950927734 -6.099002838134766 77.93166351318359 -9.059352874755859 79.92900848388672 -12.41200256347656 C 80.14301300048828 -12.91135311126709 80.17866516113281 -13.41065311431885 80.0360107421875 -13.91000270843506 C 79.893310546875 -14.40935230255127 79.59016418457031 -14.78385257720947 79.12651062011719 -15.03350257873535 C 78.83140563964844 -15.19238376617432 78.52916717529297 -15.27180862426758 78.21964263916016 -15.27180862426758 C 78.04281616210938 -15.27180862426758 77.86357116699219 -15.24586868286133 77.68201446533203 -15.19400310516357 C 77.18266296386719 -15.05135250091553 76.79035949707031 -14.7660026550293 76.50501251220703 -14.33800220489502 C 74.79301452636719 -11.27065277099609 72.72431182861328 -8.66700267791748 70.29901123046875 -6.527002811431885 C 67.87366485595703 -4.387002468109131 65.27001190185547 -3.103002548217773 62.48801040649414 -2.675002574920654 C 61.71469497680664 -2.5499107837677 60.97044372558594 -2.487369537353516 60.25514602661133 -2.487369537353516 C 56.48367309570313 -2.487369537353516 53.51861190795898 -4.226244926452637 51.36001205444336 -7.704002857208252 C 48.93466186523438 -11.69865226745605 47.82901000976563 -17.04865264892578 48.04301071166992 -23.75400352478027 C 48.04301071166992 -24.46735191345215 48.07866287231445 -25.1450023651123 48.1500129699707 -25.78700256347656 C 49.82472991943359 -25.29614067077637 51.46414184570313 -25.05071830749512 53.06874465942383 -25.05074310302734 C 55.42822647094727 -25.05077934265137 57.71215057373047 -25.5815258026123 59.92000961303711 -26.64300346374512 C 63.84331130981445 -28.56900215148926 66.83930969238281 -31.77900314331055 68.90801239013672 -36.27300262451172 C 70.90531158447266 -40.62435150146484 71.36901092529297 -44.51200103759766 70.29901123046875 -47.93600082397461 C 69.65701293945313 -49.86200332641602 68.53350830078125 -51.3243522644043 66.92851257324219 -52.32300186157227 C 65.68009185791016 -53.09978485107422 64.2054443359375 -53.48811721801758 62.50386047363281 -53.48811721801758 C 62.01784515380859 -53.48811721801758 61.51299667358398 -53.45639801025391 60.99001312255859 -53.39300155639648 C 55.99666213989258 -52.75100326538086 51.89501190185547 -49.25565338134766 48.68501281738281 -42.90700149536133 C 46.90166091918945 -39.34035110473633 45.61766052246094 -35.23865127563477 44.83301162719727 -30.60200309753418 C 44.47636032104492 -30.45935249328613 44.19101333618164 -30.17400360107422 43.97701263427734 -29.74600219726563 C 43.54901123046875 -28.8900032043457 43.6916618347168 -28.1410026550293 44.40501022338867 -27.49900245666504 C 44.26235961914063 -26.28635215759277 44.19101333618164 -25.07365226745605 44.19101333618164 -23.86100196838379 C 43.90566253662109 -16.37100219726563 45.18966293334961 -10.30765247344971 48.04301071166992 -5.671002864837646 C 50.94601440429688 -0.9536244869232178 55.00251770019531 1.404948353767395 60.21296691894531 1.404948353767395 M 62.48964309692383 -49.61530303955078 C 64.58482360839844 -49.61530303955078 65.93975830078125 -48.66316223144531 66.55400848388672 -46.75900268554688 C 67.33866119384766 -44.26235198974609 66.94631195068359 -41.302001953125 65.37701416015625 -37.87800216674805 C 63.73631286621094 -34.2400016784668 61.34666061401367 -31.6363525390625 58.20801162719727 -30.06700325012207 C 56.58840942382813 -29.29577255249023 54.9067268371582 -28.91019058227539 53.16204452514648 -28.91025924682617 C 51.67935180664063 -28.91031646728516 50.15103530883789 -29.18889808654785 48.57801055908203 -29.74600219726563 C 49.29131317138672 -34.0260009765625 50.46831130981445 -37.84235382080078 52.10901260375977 -41.19500350952148 C 54.74831008911133 -46.33100128173828 57.85131072998047 -49.11300277709961 61.41801071166992 -49.5410041809082 C 61.79456329345703 -49.59054565429688 62.15163421630859 -49.61530303955078 62.48964309692383 -49.61530303955078 M 86.75523376464844 1.297377824783325 C 86.83214569091797 1.297377824783325 86.91075897216797 1.292916059494019 86.99101257324219 1.283997297286987 C 87.56166076660156 1.283997297286987 88.02531433105469 1.069997310638428 88.38201141357422 0.6419973373413086 C 88.59600830078125 0.3566473424434662 88.70301055908203 0.1069973483681679 88.70301055908203 -0.1070026531815529 C 88.77431488037109 -0.1783526539802551 88.81001281738281 -0.2496526539325714 88.81001281738281 -0.3210026621818542 L 88.81001281738281 -0.428002655506134 L 88.81001281738281 -0.5350026488304138 L 88.81001281738281 -0.6420026421546936 L 88.81001281738281 -0.9630026817321777 L 88.81001281738281 -1.284002661705017 L 88.81001281738281 -1.819002628326416 L 88.81001281738281 -2.140002727508545 L 88.81001281738281 -2.247002601623535 C 88.95265960693359 -12.94700241088867 90.20101165771484 -21.97065353393555 92.55500793457031 -29.31800270080566 C 95.90766143798828 -39.66135406494141 101.4716644287109 -46.58065414428711 109.2470092773438 -50.07600402832031 C 109.7463607788086 -50.29000091552734 110.0851593017578 -50.64665222167969 110.2635116577148 -51.14600372314453 C 110.4418106079102 -51.64535140991211 110.4240112304688 -52.12685394287109 110.2100143432617 -52.59050369262695 C 109.9960098266602 -53.05415344238281 109.6393127441406 -53.37515258789063 109.1400146484375 -53.55350112915039 C 108.9130096435547 -53.63457870483398 108.6934661865234 -53.67509841918945 108.4812164306641 -53.67509841918945 C 108.2265625 -53.67509841918945 107.9824447631836 -53.61672210693359 107.7490081787109 -53.50000381469727 C 99.04631042480469 -49.64800262451172 92.76901245117188 -41.97965240478516 88.91701507568359 -30.49500274658203 L 88.70301055908203 -29.85300254821777 C 88.77431488037109 -32.20700454711914 88.88130950927734 -35.98765182495117 89.02400970458984 -41.19500350952148 C 89.02400970458984 -41.76565170288086 88.84566497802734 -42.24715423583984 88.489013671875 -42.63950347900391 C 88.13230895996094 -43.03185272216797 87.68650817871094 -43.22800445556641 87.15151214599609 -43.22800445556641 C 86.61650848388672 -43.22800445556641 86.15280914306641 -43.04965209960938 85.76051330566406 -42.69300079345703 C 85.3681640625 -42.33635330200195 85.17201232910156 -41.90835189819336 85.17201232910156 -41.40900421142578 C 84.9580078125 -33.41965103149414 84.81531524658203 -27.53465270996094 84.74401092529297 -23.75400352478027 C 84.74401092529297 -21.89935302734375 84.76181030273438 -19.24215316772461 84.79750823974609 -15.78250312805176 C 84.83316040039063 -12.32285308837891 84.85101318359375 -9.915352821350098 84.85101318359375 -8.560002326965332 L 84.85101318359375 -5.350002765655518 L 84.85101318359375 -5.136002540588379 L 84.85101318359375 -4.922002792358398 L 84.85101318359375 -4.81500244140625 L 84.85101318359375 -4.70800256729126 L 84.85101318359375 -4.60100269317627 L 84.85101318359375 -4.494002819061279 L 84.85101318359375 -4.387002468109131 C 84.85101318359375 -4.2443528175354 84.88665771484375 -4.1016526222229 84.9580078125 -3.959002733230591 L 84.9580078125 -2.996002674102783 L 84.9580078125 -1.284002661705017 L 84.9580078125 -0.7490026354789734 L 84.9580078125 -0.5350026488304138 L 84.9580078125 -0.428002655506134 C 84.9580078125 -0.2853526473045349 84.99365997314453 -0.1783526539802551 85.06501007080078 -0.1070026531815529 C 85.06501007080078 0.1069973483681679 85.17201232910156 0.3566473424434662 85.38600921630859 0.6419973373413086 C 85.76051330566406 1.078928589820862 86.21689605712891 1.297377824783325 86.75523376464844 1.297377824783325 M 6.960947036743164 0.6598352193832397 C 7.046130180358887 0.6598318815231323 7.133366584777832 0.653886079788208 7.222511291503906 0.6419973373413086 C 7.757511615753174 0.5706473588943481 8.203361511230469 0.3388473391532898 8.560011863708496 -0.05350265651941299 C 8.916661262512207 -0.445852667093277 9.059361457824707 -0.9273526668548584 8.988011360168457 -1.498002648353577 C 8.203361511230469 -9.558652877807617 7.73966121673584 -18.93900299072266 7.597011566162109 -29.63900184631348 C 7.73966121673584 -29.71035194396973 7.846661567687988 -29.74600219726563 7.918011665344238 -29.74600219726563 C 23.89666175842285 -35.52400207519531 34.06166076660156 -43.19235229492188 38.41300964355469 -52.75100326538086 C 41.12366104125977 -58.67165374755859 41.69436264038086 -63.80765151977539 40.1250114440918 -68.15900421142578 C 38.69836044311523 -72.22500610351563 35.73801040649414 -75.04265594482422 31.24401092529297 -76.61199951171875 C 28.95381546020508 -77.50004577636719 26.48039245605469 -77.94397735595703 23.82272720336914 -77.94397735595703 C 22.42420387268066 -77.94397735595703 20.97428512573242 -77.82095336914063 19.47401237487793 -77.57500457763672 C 15.12266159057617 -76.86165618896484 11.23501110076904 -75.185302734375 7.81101131439209 -72.54600524902344 C 7.525661468505859 -73.40200042724609 6.919361591339111 -73.83000183105469 5.992011547088623 -73.83000183105469 C 5.492661476135254 -73.83000183105469 5.04686164855957 -73.63385009765625 4.654511451721191 -73.24150085449219 C 4.262161254882813 -72.84915161132813 4.066011428833008 -72.40335083007813 4.066011428833008 -71.90399932861328 C 4.066011428833008 -67.90935516357422 4.012511253356934 -61.97085189819336 3.905511379241943 -54.0885009765625 C 3.798511505126953 -46.20615386962891 3.745011329650879 -40.33900451660156 3.745011329650879 -36.48700332641602 C 3.745011329650879 -22.57700347900391 4.208661556243896 -10.77135276794434 5.136011600494385 -1.070002675056458 C 5.207361221313477 -0.5706526637077332 5.43916130065918 -0.1426526606082916 5.831511497497559 0.2139973491430283 C 6.158485889434814 0.5112202167510986 6.534906387329102 0.6598520874977112 6.960947036743164 0.6598352193832397 M 24.09166526794434 -74.11177062988281 C 26.2252197265625 -74.11177062988281 28.18149375915527 -73.76815032958984 29.96001052856445 -73.08100128173828 C 33.24131011962891 -71.86835479736328 35.41701126098633 -69.79965209960938 36.48701095581055 -66.875 C 37.69966125488281 -63.45100402832031 37.20030975341797 -59.24235153198242 34.98900985717773 -54.24900436401367 C 31.13701057434082 -45.90300369262695 22.00631141662598 -39.05500411987305 7.597011566162109 -33.70500183105469 L 7.597011566162109 -35.09600448608398 L 7.597011566162109 -36.48700332641602 C 7.597011566162109 -40.26765441894531 7.650511264801025 -45.63550186157227 7.757511615753174 -52.59050369262695 C 7.864511489868164 -59.54550170898438 7.918011665344238 -64.52100372314453 7.918011665344238 -67.51700592041016 C 7.98936128616333 -67.58835601806641 8.09636116027832 -67.65965270996094 8.239011764526367 -67.73100280761719 C 11.09236145019531 -70.65565490722656 14.64116096496582 -72.58164978027344 18.88551139831543 -73.50900268554688 C 20.72477722167969 -73.91086578369141 22.46001625061035 -74.11177062988281 24.09166526794434 -74.11177062988281 M 141.2400054931641 -62.70200347900391 C 141.7393188476563 -62.70200347900391 142.1851654052734 -62.89815139770508 142.5775146484375 -63.29050445556641 C 142.9698181152344 -63.68280410766602 143.166015625 -64.12865447998047 143.166015625 -64.62800598144531 C 143.166015625 -65.12730407714844 142.9520111083984 -65.55530548095703 142.5240173339844 -65.91200256347656 C 142.1673126220703 -66.34000396728516 141.7393188476563 -66.55400085449219 141.2400054931641 -66.55400085449219 C 140.7406616210938 -66.55400085449219 140.2948150634766 -66.35784912109375 139.9025115966797 -65.96549987792969 C 139.5101623535156 -65.57315063476563 139.3140106201172 -65.12730407714844 139.3140106201172 -64.62800598144531 C 139.3140106201172 -64.12865447998047 139.5101623535156 -63.68285369873047 139.9025115966797 -63.29050445556641 C 140.2948150634766 -62.89815139770508 140.7406616210938 -62.70200347900391 141.2400054931641 -62.70200347900391 M 156.0082092285156 23.37584686279297 C 153.15576171875 23.37584686279297 150.3417358398438 22.81599807739258 147.7298889160156 21.75470161437988 C 147.5011749267578 21.79242134094238 147.2712860107422 21.82670783996582 147.0404052734375 21.85749816894531 C 146.1639556884766 21.9743480682373 144.9941558837891 22.05244827270508 144.1099548339844 22.05244827270508 C 140.0770111083984 22.05244827270508 136.2049407958984 20.96879196166992 132.7897491455078 18.90029525756836 C 129.824462890625 20.71897315979004 126.4346084594727 21.80193519592285 122.8282623291016 22.0422477722168 C 122.385612487793 22.07174682617188 121.7838134765625 22.09184646606445 121.3402099609375 22.09184646606445 C 116.2823638916016 22.09184646606445 111.3463134765625 20.33204650878906 107.4414596557617 17.13654708862305 C 106.0736083984375 16.01745796203613 104.8597030639648 14.74954223632813 103.8158340454102 13.36194896697998 C 103.7925872802734 13.39016151428223 103.7692642211914 13.41831111907959 103.7458648681641 13.44639778137207 C 99.77181243896484 18.21479415893555 94.00477600097656 21.03639602661133 87.81973266601563 21.26847457885742 C 87.44638061523438 21.28699684143066 87.07822418212891 21.29739761352539 86.75526428222656 21.29739761352539 C 82.76588439941406 21.29739761352539 78.90473937988281 20.20161819458008 75.55342102050781 18.18614387512207 C 72.63144683837891 19.47973442077637 69.55914306640625 20.39218521118164 66.35256195068359 20.91569709777832 C 64.06761169433594 21.26119804382324 62.1021614074707 21.40494728088379 60.21296310424805 21.40494728088379 C 47.96611022949219 21.40494728088379 37.59490966796875 15.51174736022949 31.00981140136719 4.810897350311279 C 30.2568473815918 3.587344169616699 29.56548118591309 2.320975542068481 28.93586158752441 1.01262104511261 C 28.47776794433594 5.451191425323486 26.55596160888672 9.882803916931152 23.35941123962402 13.3992977142334 C 19.84561157226563 17.26484680175781 15.05366134643555 19.77469825744629 9.866411209106445 20.46649742126465 C 8.989961624145508 20.58334732055664 7.845161437988281 20.65984725952148 6.96096134185791 20.65984725952148 C 1.563111424446106 20.65984725952148 -3.615638494491577 18.6545467376709 -7.621288776397705 15.01339721679688 C -11.43638896942139 11.54544734954834 -13.93713855743408 6.838247299194336 -14.6628885269165 1.758997321128845 C -15.75643825531006 -9.452702522277832 -16.2549877166748 -22.00900268554688 -16.2549877166748 -36.48700332641602 C -16.2549877166748 -40.39840316772461 -16.2012882232666 -46.35605239868164 -16.09263801574707 -54.35995101928711 C -15.98728847503662 -62.1222038269043 -15.93398857116699 -67.97019958496094 -15.93398857116699 -71.90399932861328 C -15.93398857116699 -77.72920227050781 -13.64463901519775 -83.22665405273438 -9.487638473510742 -87.38365173339844 C -5.676970481872559 -91.19432067871094 -0.7395110130310059 -93.43560028076172 4.543868541717529 -93.78260040283203 C 8.222033500671387 -95.45749664306641 12.12992477416992 -96.63800811767578 16.23846054077148 -97.31155395507813 C 18.85461235046387 -97.74045562744141 21.38396072387695 -97.94400024414063 23.82271194458008 -97.94400024414063 C 28.95066070556641 -97.94400024414063 33.88031005859375 -97.04070281982422 38.47466278076172 -95.25920104980469 C 48.04676055908203 -91.92870330810547 55.56130981445313 -84.57265472412109 58.99701309204102 -74.78070068359375 C 59.16899871826172 -74.30393981933594 59.33012008666992 -73.82431030273438 59.4802360534668 -73.34230804443359 C 60.5582275390625 -73.44387817382813 61.5452766418457 -73.48810577392578 62.50386047363281 -73.48810577392578 C 67.91191101074219 -73.48810577392578 73.09566497802734 -72.04125213623047 77.49471282958984 -69.30400085449219 C 80.21063232421875 -67.61412811279297 82.56929779052734 -65.51506042480469 84.51985931396484 -63.07169342041016 C 85.18581390380859 -63.15118789672852 85.85768127441406 -63.20067977905273 86.53359985351563 -63.21942901611328 C 90.22325897216797 -66.57228088378906 93.95991516113281 -68.97856903076172 97.39009857177734 -70.71529388427734 C 97.97422790527344 -74.36306762695313 98.84609985351563 -77.58493041992188 100.0171585083008 -80.47805023193359 C 102.3514633178711 -86.59405517578125 106.5149078369141 -91.80190277099609 111.9150085449219 -95.17695617675781 C 116.3972091674805 -97.95915222167969 121.5189590454102 -99.41245269775391 126.7792129516602 -99.41245269775391 C 129.5631561279297 -99.41245269775391 132.4031066894531 -99.00955200195313 135.22021484375 -98.21500396728516 C 138.9779205322266 -97.18368530273438 142.4138031005859 -95.47266387939453 145.4407958984375 -93.16013336181641 C 148.5601959228516 -94.78461456298828 152.0468597412109 -95.64900207519531 155.6315155029297 -95.64900207519531 C 161.7639617919922 -95.64900207519531 167.645263671875 -93.04850006103516 171.7674560546875 -88.51435089111328 C 175.4670562744141 -84.44440460205078 177.5040130615234 -79.15380096435547 177.5040130615234 -73.61600494384766 C 177.502197265625 -73.57084655761719 177.5002899169922 -73.52341461181641 177.4984741210938 -73.47827911376953 C 177.7611541748047 -73.48491668701172 178.0204925537109 -73.48810577392578 178.2778625488281 -73.48810577392578 C 183.6859130859375 -73.48810577392578 188.8696594238281 -72.04125213623047 193.2687072753906 -69.30400085449219 C 193.7954864501953 -68.97623443603516 194.308837890625 -68.63304901123047 194.808349609375 -68.27497100830078 C 199.1262512207031 -70.54753875732422 203.9054260253906 -71.98108673095703 208.9423065185547 -72.48940277099609 C 210.3207550048828 -72.62855529785156 211.68310546875 -72.6966552734375 213.0276184082031 -72.6966552734375 C 219.4305114746094 -72.6966552734375 225.545654296875 -71.17079925537109 231.2032165527344 -68.16145324707031 C 239.6910095214844 -63.64660263061523 245.5311126708984 -55.91460418701172 247.6477661132813 -46.38960266113281 C 247.7589111328125 -45.88945388793945 247.8507690429688 -45.38525390625 247.9232177734375 -44.8780517578125 C 248.6508636474609 -39.78180313110352 247.5546569824219 -34.54245376586914 244.8365631103516 -30.12515258789063 C 243.6244506835938 -28.15564727783203 242.1469421386719 -26.42342758178711 240.4553070068359 -24.96473121643066 C 242.0643005371094 -22.22966003417969 243.2605590820313 -19.34171295166016 244.02685546875 -16.33540344238281 C 245.19775390625 -11.74170303344727 245.35546875 -6.970852851867676 244.49560546875 -2.155352592468262 C 242.6518096923828 7.306897163391113 237.1497039794922 14.5395975112915 228.9440612792969 18.52519798278809 C 224.7947692871094 20.52832412719727 220.3179931640625 21.53352355957031 215.5943145751953 21.53364753723145 L 215.5943145751953 21.53364753723145 C 215.5940704345703 21.53364753723145 215.5938568115234 21.53364753723145 215.5936126708984 21.53364753723145 C 215.5933227539063 21.53364753723145 215.5933990478516 21.53364753723145 215.5931091308594 21.53364753723145 C 213.6200866699219 21.53368186950684 211.5543670654297 21.35667610168457 209.3970642089844 20.96949768066406 C 204.5159149169922 20.04677391052246 200.0314483642578 18.30728530883789 195.9126281738281 15.7672119140625 C 191.67333984375 18.38493156433105 187.0589599609375 20.11038398742676 182.1266174316406 20.91564750671387 C 179.8416137695313 21.26119804382324 177.8761596679688 21.40494728088379 175.9869689941406 21.40494728088379 C 172.9394226074219 21.40494728088379 170.0075988769531 21.03991317749023 167.2218017578125 20.32680320739746 C 164.3129730224609 22.05972480773926 161.0072937011719 23.09228515625 157.4962615966797 23.32624816894531 C 157.0536041259766 23.35574722290039 156.4518127441406 23.37584686279297 156.0082092285156 23.37584686279297 Z" stroke="none" fill="#85b501"/></g></svg>