<svg xmlns="http://www.w3.org/2000/svg" width="207.415" height="72.69" viewBox="0 0 207.415 72.69"><g transform="translate(6.024 60.41)" fill="#fff" stroke-linecap="round" stroke-linejoin="bevel"><path d="M 120.5639419555664 7.279998302459717 C 117.9012451171875 7.279998302459717 115.3478622436523 6.294442653656006 113.179801940918 4.429914951324463 L 113.1635818481445 4.415970802307129 L 113.1474685668945 4.4018874168396 C 110.8889236450195 2.4256432056427 109.3302688598633 -0.2402992844581604 108.495849609375 -3.546146392822266 C 108.1948547363281 -3.036047220230103 107.8759689331055 -2.534527540206909 107.5394973754883 -2.042223930358887 C 106.0261917114258 0.1719706058502197 104.2322998046875 1.932581663131714 102.2076110839844 3.190720558166504 C 100.0993041992188 4.500816822052002 97.74407958984375 5.270721435546875 95.20716857910156 5.479159832000732 C 94.72492980957031 5.520600318908691 94.24313354492188 5.541609287261963 93.77507781982422 5.541609287261963 C 91.20199584960938 5.541609287261963 88.85052490234375 4.919637203216553 86.78597259521484 3.69299840927124 C 85.41230773925781 2.876851081848145 84.18585205078125 1.802268028259277 83.12174987792969 0.4848822057247162 C 82.89091491699219 0.9096226692199707 82.63260650634766 1.314968943595886 82.34730529785156 1.699803948402405 C 81.35660552978516 3.036109447479248 80.06538391113281 4.096831798553467 78.50952911376953 4.852526187896729 L 78.50413513183594 4.855165004730225 L 78.49874877929688 4.857748508453369 C 76.90455627441406 5.627359390258789 75.14338684082031 6.017609596252441 73.26422119140625 6.017664909362793 C 72.40877532958984 6.017693042755127 71.51699829101563 5.935498237609863 70.61366271972656 5.773359298706055 L 70.59058380126953 5.76922082901001 L 70.56752777099609 5.764859676361084 C 68.13755035400391 5.30510950088501 65.84896850585938 4.34569263458252 63.76535797119141 2.913220643997192 C 62.09055328369141 1.76179301738739 60.73778915405273 0.3805592954158783 59.72541427612305 -1.20869767665863 C 58.34489059448242 0.617500364780426 56.75630569458008 2.09476375579834 54.99260711669922 3.190720558166504 C 52.88430404663086 4.500816822052002 50.52907943725586 5.270721435546875 47.99216842651367 5.479159832000732 C 47.50992965698242 5.520600318908691 47.02812957763672 5.541609287261963 46.56008148193359 5.541609287261963 C 43.98699569702148 5.541609287261963 41.63552474975586 4.919637203216553 39.57096862792969 3.69299840927124 C 38.91984176635742 3.306137561798096 38.30178833007813 2.861214399337769 37.71843719482422 2.359899997711182 C 37.54630661010742 2.584241628646851 37.35801315307617 2.799036502838135 37.15402603149414 3.003026247024536 C 35.95783233642578 4.199220657348633 34.38705444335938 4.857998371124268 32.73099899291992 4.857998371124268 C 31.3908863067627 4.857998371124268 30.12991333007813 4.467887401580811 29.08433151245117 3.729831695556641 C 28.22165870666504 3.120890855789185 27.5382137298584 2.300611972808838 27.07841873168945 1.329541921615601 C 21.41450881958008 -7.66903829574585 16.22409057617188 -16.18271255493164 11.56996726989746 -24.10670852661133 C 11.5691499710083 -23.77371406555176 11.56831741333008 -23.43775939941406 11.56746959686279 -23.09803009033203 C 11.54394245147705 -13.65619564056396 11.53199768066406 -6.290973663330078 11.53199768066406 -1.207001566886902 C 11.53199768066406 0.449053943157196 10.87321949005127 2.019831657409668 9.67702579498291 3.216026067733765 C 8.480831146240234 4.412220478057861 6.910053253173828 5.070998191833496 5.253997802734375 5.070998191833496 C 3.597942113876343 5.070998191833496 2.027164220809937 4.412220478057861 0.8309698104858398 3.216026067733765 C -0.3652246296405792 2.019831657409668 -1.024002432823181 0.449053943157196 -1.024002432823181 -1.207001566886902 C -1.024002432823181 -6.393112659454346 -1.012058019638062 -14.2560567855835 -0.9885024428367615 -24.57741737365723 C -0.9649468660354614 -34.89119720458984 -0.953002393245697 -42.74644470214844 -0.953002393245697 -47.92500305175781 C -0.953002393245697 -49.58105850219727 -0.2942246496677399 -51.15183639526367 0.9019697904586792 -52.34803009033203 C 2.098164319992065 -53.54422378540039 3.668941974639893 -54.2030029296875 5.324997425079346 -54.2030029296875 C 6.665108680725098 -54.2030029296875 7.926080703735352 -53.81288909912109 8.971664428710938 -53.07483673095703 C 9.769399642944336 -52.5117301940918 10.41395950317383 -51.76773834228516 10.87005424499512 -50.89105987548828 C 11.58524417877197 -49.89835357666016 12.27113914489746 -48.820068359375 12.91338634490967 -47.67830657958984 C 13.59477519989014 -46.46694564819336 14.29538631439209 -45.12980651855469 14.99577522277832 -43.70402908325195 C 15.76033115386963 -42.14761352539063 16.18749809265137 -41.35419464111328 16.41122055053711 -40.96269607543945 L 16.42466354370117 -40.93916702270508 L 16.43782997131348 -40.91550064086914 C 19.48367881774902 -35.44860076904297 22.84193992614746 -29.64914703369141 26.48089790344238 -23.57043266296387 C 26.4832878112793 -24.60530853271484 26.48583030700684 -25.67523384094238 26.488525390625 -26.77919578552246 C 26.51205253601074 -36.43313980102539 26.52399826049805 -43.9537239074707 26.52399826049805 -49.13199996948242 C 26.52399826049805 -50.78805541992188 27.18277549743652 -52.35883331298828 28.37896919250488 -53.55503082275391 C 29.57516479492188 -54.75122451782227 31.14594268798828 -55.40999984741211 32.80199813842773 -55.40999984741211 C 34.45805358886719 -55.40999984741211 36.02883148193359 -54.75122451782227 37.22502517700195 -53.55503082275391 C 38.42121887207031 -52.35883331298828 39.07999801635742 -50.78805541992188 39.07999801635742 -49.13199996948242 C 39.07999801635742 -45.69582366943359 39.0749397277832 -41.10015487670898 39.06491470336914 -35.40647125244141 C 40.61125183105469 -37.1027946472168 42.36774444580078 -38.42462158203125 44.3234748840332 -39.36011123657227 C 45.21957778930664 -39.79853439331055 46.15810012817383 -40.020751953125 47.11405181884766 -40.020751953125 C 48.21850967407227 -40.020751953125 49.27727890014648 -39.72293853759766 50.21456527709961 -39.16188812255859 C 53.52931594848633 -38.20360946655273 56.3657341003418 -36.55584335327148 58.66352844238281 -34.252197265625 C 59.142578125 -34.84574127197266 59.68445205688477 -35.40276718139648 60.28702545166016 -35.92036437988281 C 62.91549682617188 -38.17813873291016 66.07624816894531 -39.50741958618164 69.68147277832031 -39.87122344970703 C 70.31060791015625 -39.93472290039063 70.94322204589844 -39.9669189453125 71.56174468994141 -39.9669189453125 C 74.44161224365234 -39.9669189453125 77.19252777099609 -39.28039169311523 79.73805236816406 -37.92636108398438 C 81.81505584716797 -36.82158279418945 83.47669219970703 -35.28938674926758 84.67073822021484 -33.39932250976563 C 86.57045745849609 -36.08623123168945 88.86875152587891 -38.08309173583984 91.53847503662109 -39.36011123657227 C 92.43457794189453 -39.79853439331055 93.37310028076172 -40.020751953125 94.32905578613281 -40.020751953125 C 95.43350982666016 -40.020751953125 96.49227905273438 -39.72293853759766 97.4295654296875 -39.16188812255859 C 99.14598846435547 -38.66567611694336 100.7344970703125 -37.98439788818359 102.1860580444336 -37.12306976318359 C 102.1849670410156 -37.1309814453125 102.1839141845703 -37.13877868652344 102.182861328125 -37.14669418334961 C 101.9628829956055 -38.79644775390625 102.3907165527344 -40.43694686889648 103.3874969482422 -41.7660026550293 C 104.411979675293 -43.13198852539063 105.9220352172852 -44.0040397644043 107.6406860351563 -44.22260665893555 C 107.7327270507813 -44.23446655273438 107.8249588012695 -44.24602127075195 107.9171447753906 -44.25724029541016 C 108.0129013061523 -46.23191833496094 108.075309753418 -47.79587173461914 108.1035461425781 -48.93121337890625 C 108.1259994506836 -50.64617919921875 108.8436584472656 -52.23019409179688 110.1301345825195 -53.39969635009766 C 111.3043060302734 -54.46714019775391 112.8265838623047 -55.05500030517578 114.4164962768555 -55.05500030517578 C 116.1862182617188 -55.05500030517578 117.8153305053711 -54.33508682250977 119.0036926269531 -53.02786254882813 C 120.0711364746094 -51.85369491577148 120.6589965820313 -50.31880569458008 120.6589965820313 -48.70600128173828 L 120.6589965820313 -48.6464729309082 L 120.6575775146484 -48.58697509765625 C 120.6304779052734 -47.44827270507813 120.5752105712891 -46.00889205932617 120.4904022216797 -44.23905944824219 L 120.4971084594727 -44.23852920532227 L 120.6101608276367 -44.22439193725586 C 122.1824417114258 -44.02786254882813 123.5664978027344 -43.31569671630859 124.6126937866211 -42.16486358642578 C 125.8320236206055 -40.82358551025391 126.3935012817383 -39.02042007446289 126.1531372070313 -37.21769714355469 C 125.9487762451172 -35.68497467041016 125.238410949707 -34.32725143432617 124.0988616943359 -33.29130554199219 C 122.9666900634766 -32.26205825805664 121.5148620605469 -31.6951961517334 120.0108032226563 -31.69516754150391 C 119.9909515380859 -31.69516754150391 119.9710845947266 -31.69526672363281 119.9512023925781 -31.69546508789063 C 119.5998992919922 -21.34772491455078 119.7761154174805 -13.29942607879639 120.4778594970703 -7.724445819854736 C 120.5851745605469 -6.865950107574463 120.7744369506836 -6.140746593475342 121.0130920410156 -5.640215873718262 L 121.0909423828125 -5.679140567779541 C 121.9149551391602 -6.091147422790527 122.7991714477539 -6.310827732086182 123.7214126586914 -6.332948684692383 C 123.7174682617188 -7.262875080108643 123.7061996459961 -8.632729530334473 123.6877746582031 -10.42094612121582 C 123.6640243530273 -12.72300148010254 123.6520004272461 -14.51997375488281 123.6520004272461 -15.76200199127197 L 123.6520004272461 -15.80916786193848 L 123.6528854370117 -15.8563346862793 C 123.7001190185547 -18.3594970703125 123.7955932617188 -22.29984092712402 123.9366455078125 -27.56769371032715 C 123.9611282348633 -29.27958488464355 124.6785125732422 -30.86074066162109 125.9629440307617 -32.02853012084961 C 127.1373062133789 -33.09614181518555 128.6595764160156 -33.68400192260742 130.2495269775391 -33.68400192260742 C 131.1390838623047 -33.68400192260742 131.9931640625 -33.50208282470703 132.7735290527344 -33.15513610839844 C 135.2945556640625 -36.17382049560547 138.3154754638672 -38.47526168823242 141.8202972412109 -40.03969573974609 C 142.6349029541016 -40.42232894897461 143.5029449462891 -40.61619567871094 144.4028625488281 -40.61619567871094 C 145.1176605224609 -40.61619567871094 145.8304901123047 -40.49105834960938 146.5215759277344 -40.2442512512207 C 148.1177520751953 -39.67414093017578 149.3848876953125 -38.51908493041992 150.0897979736328 -36.99177932739258 C 150.1545715332031 -36.85144424438477 150.2138977050781 -36.70943450927734 150.2677612304688 -36.56602478027344 C 151.5182800292969 -37.71676635742188 152.8883209228516 -38.64971542358398 154.3734741210938 -39.36011123657227 C 155.2695770263672 -39.79853439331055 156.2080993652344 -40.020751953125 157.1640472412109 -40.020751953125 C 158.2685089111328 -40.020751953125 159.3272857666016 -39.72293853759766 160.2645721435547 -39.16188812255859 C 163.5793151855469 -38.20360946655273 166.4157409667969 -36.55584335327148 168.7135314941406 -34.252197265625 C 169.1925811767578 -34.84574127197266 169.7344512939453 -35.40276718139648 170.3370208740234 -35.92036437988281 C 172.9654998779297 -38.17813873291016 176.1262512207031 -39.50741958618164 179.7314758300781 -39.87122344970703 C 180.3606109619141 -39.93472290039063 180.9932250976563 -39.9669189453125 181.6117401123047 -39.9669189453125 C 184.4916076660156 -39.9669189453125 187.2425231933594 -39.28039169311523 189.7880554199219 -37.92636108398438 C 193.3013305664063 -36.05761337280273 195.6257171630859 -32.96664047241211 196.5099487304688 -28.98764038085938 L 196.5515747070313 -28.80019569396973 L 196.5787506103516 -28.6101131439209 C 196.7923583984375 -27.11477851867676 196.4796142578125 -25.63266754150391 195.6742706298828 -24.32400131225586 C 194.7686614990234 -22.85236358642578 193.35107421875 -21.84500122070313 191.6826324462891 -21.48750114440918 C 191.2490234375 -21.39455795288086 190.8062133789063 -21.34744644165039 190.3665466308594 -21.34744644165039 C 189.2088623046875 -21.34744644165039 188.0640869140625 -21.67536354064941 187.0559997558594 -22.29572296142578 C 185.6920013427734 -23.13508415222168 184.7009429931641 -24.43691825866699 184.265380859375 -25.96139144897461 L 184.2167205810547 -26.13166809082031 L 184.1802520751953 -26.30494689941406 C 184.1104736328125 -26.63636207580566 184.0419158935547 -26.75275230407715 183.6926116943359 -26.9400577545166 C 183.0821990966797 -27.26736259460449 182.3883514404297 -27.4265022277832 181.5714416503906 -27.4265022277832 C 181.3848571777344 -27.4265022277832 181.1896362304688 -27.41805648803711 180.9902648925781 -27.40138244628906 C 179.9727783203125 -27.27873611450195 179.2001953125 -26.99238777160645 178.6931610107422 -26.54989051818848 C 178.6749877929688 -26.53402900695801 178.65966796875 -26.5198802947998 178.6468658447266 -26.50753021240234 C 178.6832275390625 -26.3192138671875 178.9587860107422 -25.67646026611328 179.85546875 -24.67264556884766 C 180.4598083496094 -24.11713409423828 181.8791809082031 -22.89640998840332 185.1900024414063 -20.21622467041016 C 186.4692840576172 -19.18288612365723 187.5509338378906 -18.2768669128418 188.4051055908203 -17.52319526672363 L 188.461669921875 -17.47327995300293 L 188.5166931152344 -17.42169570922852 C 189.4664764404297 -16.53127861022949 190.4341888427734 -15.45564079284668 191.4751892089844 -14.13330745697021 C 192.7812957763672 -12.4741678237915 193.6868286132813 -10.67861270904541 194.1665802001953 -8.796529769897461 C 194.6501617431641 -6.899334907531738 194.7119140625 -4.91008472442627 194.3501434326172 -2.884057283401489 L 194.3431091308594 -2.844696044921875 L 194.33544921875 -2.805446147918701 C 194.0031585693359 -1.102473855018616 193.35107421875 0.413303941488266 192.3973083496094 1.699803948402405 C 191.4066162109375 3.036109447479248 190.1153869628906 4.096831798553467 188.5595245361328 4.852526187896729 L 188.5541381835938 4.855165004730225 L 188.5487518310547 4.857748508453369 C 186.9545593261719 5.627359390258789 185.1933898925781 6.017609596252441 183.3142242431641 6.017664909362793 C 182.4587707519531 6.017693042755127 181.5670013427734 5.935498237609863 180.6636657714844 5.773359298706055 L 180.6405792236328 5.76922082901001 L 180.6175231933594 5.764859676361084 C 178.1875457763672 5.30510950088501 175.8989715576172 4.34569263458252 173.8153533935547 2.913220643997192 C 172.1405487060547 1.76179301738739 170.7877807617188 0.3805561363697052 169.7754058837891 -1.208700895309448 C 168.3949127197266 0.6174788475036621 166.8063049316406 2.09476375579834 165.0426025390625 3.190720558166504 C 162.9343109130859 4.500816822052002 160.5790863037109 5.270720958709717 158.0421752929688 5.479159832000732 C 157.5599365234375 5.520599842071533 157.078125 5.541609287261963 156.6100769042969 5.541609287261963 C 154.0370025634766 5.541609287261963 151.6855316162109 4.919637203216553 149.6209716796875 3.69299840927124 C 147.6169128417969 2.502309799194336 145.9263610839844 0.7618005275726318 144.5958557128906 -1.480587840080261 C 143.4797821044922 -3.334972858428955 142.6716156005859 -5.470775604248047 142.1938323974609 -7.82886266708374 C 141.749755859375 -10.0206184387207 141.580078125 -12.46671772003174 141.6895599365234 -15.09984874725342 C 141.8287506103516 -19.19740867614746 142.6430206298828 -23.15486907958984 144.1140441894531 -26.89602279663086 C 141.7218780517578 -24.9189510345459 139.9021606445313 -21.95307731628418 138.5936889648438 -17.91942977905273 C 137.1943969726563 -13.5476016998291 136.4396057128906 -8.00950813293457 136.3499908447266 -1.457179665565491 L 136.3499908447266 -1.420001626014709 L 136.3499908447266 -1.207001566886902 L 136.3499908447266 -0.8520016074180603 L 136.3499908447266 -0.6390016078948975 L 136.3499908447266 -0.4260016083717346 L 136.3499908447266 -0.3550015985965729 L 136.3499908447266 -0.2840016186237335 L 136.3499908447266 -0.2130016088485718 C 136.3499908447266 0.4438567757606506 136.2266845703125 1.08371639251709 135.9908599853516 1.680651664733887 C 135.8074951171875 2.230643510818481 135.5168609619141 2.824852466583252 135.0659942626953 3.425998449325562 L 134.9892272949219 3.528387308120728 L 134.9072723388672 3.626692771911621 C 133.7891082763672 4.968667507171631 132.1684112548828 5.767550468444824 130.425537109375 5.845672607421875 C 130.2787780761719 5.855786323547363 130.1319427490234 5.860887050628662 129.9865875244141 5.860887050628662 C 129.0429229736328 5.860887050628662 128.1413116455078 5.654623985290527 127.3239059448242 5.261640548706055 L 127.2317504882813 5.323081493377686 L 127.078498840332 5.410331726074219 C 124.8990249633789 6.650942802429199 122.7072219848633 7.279998302459717 120.5639419555664 7.279998302459717 Z M 154.2384643554688 -14.6510066986084 C 154.1345520019531 -11.7117977142334 154.5329895019531 -9.392129898071289 155.3908843994141 -7.942612648010254 L 155.405029296875 -7.91869592666626 L 155.4189147949219 -7.894612789154053 C 155.8957214355469 -7.068140506744385 156.2182464599609 -7.027890682220459 156.7472686767578 -7.027862548828125 C 156.8461303710938 -7.027862548828125 156.9522705078125 -7.032529354095459 157.0627746582031 -7.041723728179932 L 157.0890197753906 -7.043918132781982 L 157.1153259277344 -7.045835018157959 C 157.4835205078125 -7.072612762451172 158.6039733886719 -7.154085159301758 160.0844421386719 -9.33777904510498 L 160.1234130859375 -9.395278930664063 L 160.1639709472656 -9.451640129089355 C 161.556640625 -11.38777923583984 162.3203277587891 -13.71650123596191 162.4987487792969 -16.57089042663574 L 162.500244140625 -16.59519577026367 L 162.5019989013672 -16.6195011138916 C 162.7122802734375 -19.52805709838867 162.2191314697266 -21.93950080871582 160.9944458007813 -23.99172401428223 C 160.3048248291016 -25.14729881286621 159.3596649169922 -26.00642204284668 158.089599609375 -26.61476135253906 C 157.4005737304688 -25.77641677856445 156.7538604736328 -24.66962242126465 156.1755828857422 -23.32994651794434 C 155.0081329345703 -20.62535285949707 154.3563995361328 -17.70553016662598 154.2384643554688 -14.6510066986084 Z M 91.40346527099609 -14.65102672576904 C 91.29954528808594 -11.71181774139404 91.697998046875 -9.392129898071289 92.55588531494141 -7.942612648010254 L 92.57002258300781 -7.91869592666626 L 92.58391571044922 -7.894612789154053 C 93.06072235107422 -7.068140506744385 93.38324737548828 -7.027890682220459 93.91227722167969 -7.027862548828125 C 94.01113891601563 -7.027862548828125 94.11727905273438 -7.032529354095459 94.22777557373047 -7.041723728179932 L 94.2540283203125 -7.043918132781982 L 94.28033447265625 -7.045835018157959 C 94.64852905273438 -7.072612762451172 95.76896667480469 -7.154085159301758 97.24944305419922 -9.33777904510498 L 97.28841400146484 -9.395278930664063 L 97.32897186279297 -9.451640129089355 C 98.72163391113281 -11.38777923583984 99.48532867431641 -13.71650123596191 99.66374969482422 -16.57089042663574 L 99.66524505615234 -16.59519577026367 L 99.66699981689453 -16.6195011138916 C 99.87727355957031 -19.52805709838867 99.38414001464844 -21.93950080871582 98.15943908691406 -23.99172401428223 C 97.46981811523438 -25.14729881286621 96.52466583251953 -26.00642204284668 95.25460052490234 -26.61476135253906 C 94.56558227539063 -25.77641677856445 93.91886138916016 -24.66962242126465 93.34058380126953 -23.32994651794434 C 92.17313385009766 -20.62535285949707 91.52140045166016 -17.70555114746094 91.40346527099609 -14.65102672576904 Z M 44.1884651184082 -14.65102672576904 C 44.08454895019531 -11.71181774139404 44.48299789428711 -9.392129898071289 45.34088516235352 -7.942612648010254 L 45.35502624511719 -7.91869592666626 L 45.36891555786133 -7.894612789154053 C 45.84571838378906 -7.068140506744385 46.16824722290039 -7.027890682220459 46.6972770690918 -7.027862548828125 C 46.79613494873047 -7.027862548828125 46.90227508544922 -7.032529354095459 47.01277542114258 -7.041723728179932 L 47.03902435302734 -7.043918132781982 L 47.06533050537109 -7.045835018157959 C 47.43352508544922 -7.072612762451172 48.55397033691406 -7.154085159301758 50.03444290161133 -9.33777904510498 L 50.07341384887695 -9.395278930664063 L 50.11396789550781 -9.451640129089355 C 51.50663757324219 -11.38777923583984 52.27033233642578 -13.71650123596191 52.44874572753906 -16.57089042663574 L 52.45024871826172 -16.59519577026367 L 52.45199584960938 -16.6195011138916 C 52.66227722167969 -19.52805709838867 52.16913604736328 -21.93950080871582 50.94444274902344 -23.99172401428223 C 50.25482177734375 -25.14729881286621 49.30966567993164 -26.00642204284668 48.03960037231445 -26.61476135253906 C 47.35057830810547 -25.77641677856445 46.703857421875 -24.66962242126465 46.12557983398438 -23.32994651794434 C 44.95813369750977 -20.62535285949707 44.30640029907227 -17.70555114746094 44.1884651184082 -14.65102672576904 Z M 174.5890045166016 -11.79825115203857 C 174.9750366210938 -11.79825115203857 175.3593292236328 -11.76340579986572 175.7389068603516 -11.69423866271973 C 175.34423828125 -12.01700115203857 174.9815063476563 -12.31588268280029 174.6483459472656 -12.59248542785645 C 174.6012878417969 -12.32575988769531 174.5507507324219 -12.06130790710449 174.4964599609375 -11.79758262634277 C 174.5273132324219 -11.79802894592285 174.5581207275391 -11.79825115203857 174.5890045166016 -11.79825115203857 Z M 64.53899383544922 -11.79825115203857 C 64.92504119873047 -11.79825115203857 65.30933380126953 -11.76340579986572 65.68890380859375 -11.69423866271973 C 65.29424285888672 -12.01700115203857 64.93149566650391 -12.31588363647461 64.59835052490234 -12.59248638153076 C 64.55128479003906 -12.32576370239258 64.50074768066406 -12.06130599975586 64.44645690917969 -11.79758262634277 C 64.47730255126953 -11.79802894592285 64.50811767578125 -11.79825115203857 64.53899383544922 -11.79825115203857 Z M 75.13999176025391 -20.21622085571289 C 76.41928863525391 -19.18288803100586 77.50093841552734 -18.2768669128418 78.35511016845703 -17.52319526672363 L 78.41166687011719 -17.47327995300293 L 78.46669006347656 -17.42169570922852 C 78.63156127929688 -17.26713371276855 78.79702758789063 -17.1069278717041 78.96326446533203 -16.94088172912598 C 79.09018707275391 -18.44534111022949 79.30960845947266 -19.92815589904785 79.62081146240234 -21.38692855834961 C 78.70401763916016 -21.49112892150879 77.81140899658203 -21.80008697509766 77.00599670410156 -22.29572296142578 C 75.64199829101563 -23.13508415222168 74.65093994140625 -24.43691825866699 74.21538543701172 -25.96139144897461 L 74.16671752929688 -26.13166809082031 L 74.1302490234375 -26.30494689941406 C 74.06047058105469 -26.63636207580566 73.99191284179688 -26.75275230407715 73.64260864257813 -26.9400577545166 C 73.03218841552734 -27.26736259460449 72.33835601806641 -27.4265022277832 71.52143859863281 -27.4265022277832 C 71.33486175537109 -27.4265022277832 71.13964080810547 -27.41805648803711 70.94026184082031 -27.40138244628906 C 69.92278289794922 -27.27873611450195 69.15019989013672 -26.99238777160645 68.64316558837891 -26.54989051818848 C 68.62499237060547 -26.53402900695801 68.60967254638672 -26.5198802947998 68.59686279296875 -26.50753021240234 C 68.63323211669922 -26.31921577453613 68.90878295898438 -25.67646217346191 69.80547332763672 -24.67264747619629 C 70.40980529785156 -24.11713600158691 71.82917785644531 -22.89640998840332 75.13999938964844 -20.21622467041016 L 75.13999176025391 -20.21622085571289 Z" stroke="none"/><path d="M 32.802001953125 -50.40999984741211 C 32.47065734863281 -50.40999984741211 32.17483520507813 -50.27983474731445 31.91450500488281 -50.01950073242188 C 31.65415954589844 -49.7591667175293 31.52400207519531 -49.46333312988281 31.52400207519531 -49.13199996948242 C 31.52400207519531 -43.92533493041992 31.51216125488281 -36.4703369140625 31.48849487304688 -26.76700210571289 C 31.46482849121094 -17.06366920471191 31.4530029296875 -10.10566711425781 31.4530029296875 -5.893001556396484 C 24.06900024414063 -17.67900085449219 17.60800170898438 -28.54200172424316 12.06999206542969 -38.48200225830078 C 11.69132995605469 -39.14466857910156 11.17066955566406 -40.1505012512207 10.50799560546875 -41.4995002746582 C 9.8453369140625 -42.84850311279297 9.194503784179688 -44.09100341796875 8.555496215820313 -45.22700119018555 C 7.91650390625 -46.36300277709961 7.24200439453125 -47.40433502197266 6.531997680664063 -48.35100173950195 C 6.342666625976563 -48.91900253295898 5.940338134765625 -49.2030029296875 5.324996948242188 -49.2030029296875 C 4.993667602539063 -49.2030029296875 4.697830200195313 -49.07283401489258 4.4375 -48.8125 C 4.177169799804688 -48.55216979980469 4.0469970703125 -48.2563362121582 4.0469970703125 -47.92500305175781 C 4.0469970703125 -42.71833419799805 4.035171508789063 -34.93200302124023 4.011505126953125 -24.56600189208984 C 3.987823486328125 -14.20000076293945 3.975997924804688 -6.413669586181641 3.975997924804688 -1.207000732421875 C 3.975997924804688 -0.8756675720214844 4.106170654296875 -0.579833984375 4.366500854492188 -0.3194999694824219 C 4.6268310546875 -0.05916976928710938 4.92266845703125 0.0709991455078125 5.253997802734375 0.0709991455078125 C 5.5853271484375 0.0709991455078125 5.88116455078125 -0.05916976928710938 6.141494750976563 -0.3194999694824219 C 6.401824951171875 -0.579833984375 6.531997680664063 -0.8756675720214844 6.531997680664063 -1.207000732421875 C 6.531997680664063 -6.319000244140625 6.543838500976563 -13.62016677856445 6.5675048828125 -23.11050224304199 C 6.591171264648438 -32.60083389282227 6.602996826171875 -39.3813362121582 6.602996826171875 -43.45200347900391 C 6.886993408203125 -42.93133544921875 7.372161865234375 -41.97283554077148 8.058502197265625 -40.57649993896484 C 8.744827270507813 -39.18016815185547 9.324661254882813 -38.05599975585938 9.798004150390625 -37.20400238037109 C 15.90399169921875 -26.36466789245605 23.14599609375 -14.29467010498047 31.52400207519531 -0.9940032958984375 C 31.71333312988281 -0.4260025024414063 32.11566162109375 -0.1420021057128906 32.73100280761719 -0.1420021057128906 C 33.06233215332031 -0.1420021057128906 33.35816955566406 -0.2721672058105469 33.61849975585938 -0.532501220703125 C 33.87882995605469 -0.7928352355957031 34.00900268554688 -1.088668823242188 34.00900268554688 -1.420001983642578 L 34.00900268554688 -1.491001129150391 C 34.00900268554688 -6.792335510253906 34.02082824707031 -14.73250198364258 34.04449462890625 -25.31150245666504 C 34.06816101074219 -35.8905029296875 34.08000183105469 -43.83066940307617 34.08000183105469 -49.13199996948242 C 34.08000183105469 -49.46333312988281 33.9498291015625 -49.7591667175293 33.68949890136719 -50.01950073242188 C 33.42916870117188 -50.27983474731445 33.13333129882813 -50.40999984741211 32.802001953125 -50.40999984741211 M 114.4164962768555 -50.05500030517578 C 114.0615005493164 -50.05500030517578 113.7538299560547 -49.93666839599609 113.4934997558594 -49.70000076293945 C 113.2331619262695 -49.46333312988281 113.1029968261719 -49.17933654785156 113.1029968261719 -48.84800338745117 C 113.0556640625 -46.90733337402344 112.9136657714844 -43.80700302124023 112.6769943237305 -39.54700088500977 C 111.2096633911133 -39.54700088500977 109.7423324584961 -39.45233535766602 108.2749938964844 -39.26300048828125 C 107.8963317871094 -39.21566772460938 107.6004943847656 -39.05000305175781 107.3874969482422 -38.7660026550293 C 107.1744995117188 -38.48200225830078 107.091667175293 -38.16250228881836 107.1389999389648 -37.80750274658203 C 107.1863327026367 -37.45249938964844 107.3519973754883 -37.16850280761719 107.6359939575195 -36.95550155639648 C 107.8683776855469 -36.78121566772461 108.1165466308594 -36.694091796875 108.380615234375 -36.694091796875 C 108.4392776489258 -36.694091796875 108.4987716674805 -36.69839859008789 108.5589981079102 -36.70700073242188 C 109.8843307495117 -36.89633560180664 111.2333297729492 -36.99100112915039 112.6059951782227 -36.99100112915039 C 111.9906616210938 -23.73766899108887 112.109001159668 -13.67933654785156 112.9609985351563 -6.816001892089844 C 113.3870010375977 -3.502666473388672 114.5466613769531 -1.017669677734375 116.4399948120117 0.6389999389648438 C 117.7121658325195 1.733062744140625 119.0866088867188 2.279987335205078 120.5639343261719 2.279987335205078 C 121.8349304199219 2.279987335205078 123.1821517944336 1.874927520751953 124.6049957275391 1.064998626708984 C 124.8889999389648 0.8756637573242188 125.0783309936523 0.6034965515136719 125.1729965209961 0.2484970092773438 C 125.2676620483398 -0.1065025329589844 125.2321624755859 -0.4260025024414063 125.0664978027344 -0.7100028991699219 C 124.9008331298828 -0.9940032958984375 124.640495300293 -1.183334350585938 124.2854995727539 -1.277999877929688 C 124.1434860229492 -1.315872192382813 124.0071868896484 -1.334804534912109 123.8765411376953 -1.334800720214844 C 123.6805877685547 -1.334796905517578 123.4973907470703 -1.292198181152344 123.3269958496094 -1.207000732421875 C 122.3292083740234 -0.62689208984375 121.4055557250977 -0.3369026184082031 120.5556488037109 -0.3369026184082031 C 119.6718826293945 -0.3369026184082031 118.8678665161133 -0.6506500244140625 118.1439971923828 -1.277999877929688 C 116.7239990234375 -2.5086669921875 115.8483276367188 -4.449333190917969 115.5169982910156 -7.100002288818359 C 114.6650009155273 -13.86866760253906 114.5466613769531 -23.83233451843262 115.161994934082 -36.99100112915039 C 116.4399948120117 -36.94366836547852 118.0019989013672 -36.84900283813477 119.8479995727539 -36.70700073242188 C 119.9032287597656 -36.69911193847656 119.9574508666992 -36.69516754150391 120.0107040405273 -36.69516754150391 C 120.2769470214844 -36.69516754150391 120.5185546875 -36.79378509521484 120.7354965209961 -36.99100112915039 C 120.9958343505859 -37.22766876220703 121.1496658325195 -37.52350234985352 121.1969985961914 -37.87850189208984 C 121.2443313598633 -38.23350143432617 121.1496658325195 -38.54116821289063 120.9129943847656 -38.8015022277832 C 120.6763305664063 -39.06183624267578 120.3686676025391 -39.21566772460938 119.9899978637695 -39.26300048828125 C 118.1913299560547 -39.40500259399414 116.6056671142578 -39.49966812133789 115.2329940795898 -39.54700088500977 C 115.4696655273438 -43.66500091552734 115.6116638183594 -46.71800231933594 115.6589965820313 -48.70600128173828 C 115.6589965820313 -49.08466720581055 115.5406646728516 -49.40416717529297 115.3040008544922 -49.66450119018555 C 115.0673294067383 -49.92483520507813 114.7714996337891 -50.05500030517578 114.4164962768555 -50.05500030517578 M 144.4028472900391 -35.61618423461914 C 144.2338714599609 -35.61617660522461 144.0718994140625 -35.57744979858398 143.9169921875 -35.5 C 138.142333984375 -32.94400024414063 133.9769897460938 -27.85566902160645 131.4209899902344 -20.2350025177002 L 131.2789916992188 -19.80900192260742 C 131.3263244628906 -21.37100219726563 131.3973388671875 -23.87966918945313 131.4920043945313 -27.33500099182129 C 131.4920043945313 -27.71366882324219 131.3736572265625 -28.03316879272461 131.1369934082031 -28.29350090026855 C 130.9003295898438 -28.55383491516113 130.6044921875 -28.68400192260742 130.2494964599609 -28.68400192260742 C 129.89453125 -28.68400192260742 129.5868225097656 -28.5656681060791 129.3265075683594 -28.32900238037109 C 129.066162109375 -28.09233474731445 128.9360046386719 -27.80833435058594 128.9360046386719 -27.47700119018555 C 128.7940063476563 -22.17566871643066 128.6993408203125 -18.27066802978516 128.6520080566406 -15.76200103759766 C 128.6520080566406 -14.53133392333984 128.6638336181641 -12.76816940307617 128.6875 -10.47249984741211 C 128.7111663818359 -8.176834106445313 128.7229919433594 -6.579334259033203 128.7229919433594 -5.680000305175781 L 128.7229919433594 -3.550003051757813 L 128.7229919433594 -3.408000946044922 L 128.7229919433594 -3.266002655029297 L 128.7229919433594 -3.195003509521484 L 128.7229919433594 -3.124000549316406 L 128.7229919433594 -3.053001403808594 L 128.7229919433594 -2.982002258300781 L 128.7229919433594 -2.911003112792969 C 128.7229919433594 -2.816333770751953 128.7466735839844 -2.721668243408203 128.7940063476563 -2.627002716064453 L 128.7940063476563 -1.988002777099609 L 128.7940063476563 -0.8520011901855469 L 128.7940063476563 -0.4970016479492188 L 128.7940063476563 -0.3550033569335938 L 128.7940063476563 -0.2840003967285156 C 128.7940063476563 -0.1893348693847656 128.8176574707031 -0.1183357238769531 128.864990234375 -0.07100296020507813 C 128.864990234375 0.0709991455078125 128.9360046386719 0.236663818359375 129.0780029296875 0.4259986877441406 C 129.3265075683594 0.7159156799316406 129.6293640136719 0.8608741760253906 129.986572265625 0.8608741760253906 C 130.03759765625 0.8608741760253906 130.0897521972656 0.8579139709472656 130.1430053710938 0.8519973754882813 C 130.5216979980469 0.8519973754882813 130.8293304443359 0.7099990844726563 131.0659942626953 0.4259986877441406 C 131.2080078125 0.236663818359375 131.2789916992188 0.0709991455078125 131.2789916992188 -0.07100296020507813 C 131.3263244628906 -0.1183357238769531 131.3500061035156 -0.1656684875488281 131.3500061035156 -0.2130012512207031 L 131.3500061035156 -0.2840003967285156 L 131.3500061035156 -0.3550033569335938 L 131.3500061035156 -0.4260025024414063 L 131.3500061035156 -0.6389999389648438 L 131.3500061035156 -0.8520011901855469 L 131.3500061035156 -1.207000732421875 L 131.3500061035156 -1.420001983642578 L 131.3500061035156 -1.491001129150391 C 131.4446716308594 -8.59100341796875 132.2729949951172 -14.57866668701172 133.8349914550781 -19.45400238037109 C 136.0596618652344 -26.31733512878418 139.7516632080078 -30.90866851806641 144.9109954833984 -33.22800064086914 C 145.2423400878906 -33.37000274658203 145.4671630859375 -33.60666656494141 145.5854949951172 -33.93800354003906 C 145.7038269042969 -34.26933288574219 145.6920013427734 -34.58883666992188 145.5500030517578 -34.89649963378906 C 145.4079895019531 -35.20417022705078 145.1713256835938 -35.41716766357422 144.8399963378906 -35.53549957275391 C 144.6893768310547 -35.58929443359375 144.5436859130859 -35.61618804931641 144.4028472900391 -35.61618423461914 M 47.11404418945313 -35.020751953125 C 46.9210205078125 -35.020751953125 46.71800231933594 -34.96750259399414 46.5050048828125 -34.86100006103516 C 43.61766052246094 -33.48833465576172 41.29832458496094 -30.86133575439453 39.5469970703125 -26.98000144958496 C 37.74833679199219 -23.19333457946777 36.77799987792969 -19.17000198364258 36.63600158691406 -14.90999984741211 C 36.44667053222656 -10.41333389282227 37.18032836914063 -6.792335510253906 38.83699035644531 -4.047000885009766 C 40.64663696289063 -0.9878578186035156 43.2208251953125 0.5415992736816406 46.56007385253906 0.5415992736816406 C 46.88920593261719 0.5415992736816406 47.22599792480469 0.5267257690429688 47.56999206542969 0.4969978332519531 C 51.07266235351563 0.2129974365234375 53.94816589355469 -1.573833465576172 56.19650268554688 -4.863502502441406 C 58.44482421875 -8.153167724609375 59.71099853515625 -11.90433502197266 59.9949951171875 -16.11700248718262 C 60.184326171875 -18.81500244140625 59.94766235351563 -21.39466857910156 59.28500366210938 -23.85600090026855 C 58.57499694824219 -26.2700023651123 57.26150512695313 -28.48283576965332 55.34449768066406 -30.4945011138916 C 53.427490234375 -32.50616836547852 50.97799682617188 -33.86700057983398 47.99600219726563 -34.57700347900391 C 47.72975158691406 -34.87283325195313 47.43576049804688 -35.020751953125 47.11404418945313 -35.020751953125 M 46.697021484375 -2.027862548828125 C 44.219970703125 -2.027862548828125 42.33335876464844 -3.15069580078125 41.03799438476563 -5.395999908447266 C 39.66532897949219 -7.715335845947266 39.05000305175781 -10.86300277709961 39.19200134277344 -14.8390007019043 C 39.33399963378906 -18.53100204467773 40.114990234375 -22.02183532714844 41.53500366210938 -25.31150245666504 C 42.95500183105469 -28.60116767883301 44.753662109375 -30.90866851806641 46.93099975585938 -32.23400115966797 C 50.71766662597656 -31.38200187683105 53.48666381835938 -29.48866844177246 55.23799133300781 -26.55400085449219 C 56.98933410644531 -23.61933517456055 57.72299194335938 -20.18766784667969 57.43899536132813 -16.25900077819824 C 57.20233154296875 -12.47233581542969 56.11366271972656 -9.230003356933594 54.17300415039063 -6.532001495361328 C 52.2796630859375 -3.739334106445313 50.03132629394531 -2.248336791992188 47.42799377441406 -2.059001922607422 C 47.17874145507813 -2.038230895996094 46.93534851074219 -2.027862548828125 46.697021484375 -2.027862548828125 M 94.32904815673828 -35.020751953125 C 94.13601684570313 -35.020751953125 93.93299865722656 -34.96750259399414 93.72000122070313 -34.86100006103516 C 90.83266448974609 -33.48833465576172 88.51332855224609 -30.86133575439453 86.76200103759766 -26.98000144958496 C 84.96333312988281 -23.19333457946777 83.99299621582031 -19.17000198364258 83.85099792480469 -14.90999984741211 C 83.66166687011719 -10.41333389282227 84.39533233642578 -6.792335510253906 86.05199432373047 -4.047000885009766 C 87.86163330078125 -0.9878578186035156 90.43582916259766 0.5415992736816406 93.77507019042969 0.5415992736816406 C 94.10420227050781 0.5415992736816406 94.44100189208984 0.5267257690429688 94.78499603271484 0.4969978332519531 C 98.28766632080078 0.2129974365234375 101.1631622314453 -1.573833465576172 103.4114990234375 -4.863502502441406 C 105.6598281860352 -8.153167724609375 106.9259948730469 -11.90433502197266 107.2099990844727 -16.11700248718262 C 107.3993301391602 -18.81500244140625 107.1626663208008 -21.39466857910156 106.5 -23.85600090026855 C 105.7900009155273 -26.2700023651123 104.4764938354492 -28.48283576965332 102.5594940185547 -30.4945011138916 C 100.6424942016602 -32.50616836547852 98.19300079345703 -33.86700057983398 95.21099853515625 -34.57700347900391 C 94.94474792480469 -34.87283325195313 94.65076446533203 -35.020751953125 94.32904815673828 -35.020751953125 M 93.91201782226563 -2.027862548828125 C 91.43497467041016 -2.027862548828125 89.54836273193359 -3.15069580078125 88.25299835205078 -5.395999908447266 C 86.88033294677734 -7.715335845947266 86.26499938964844 -10.86300277709961 86.40699768066406 -14.8390007019043 C 86.54899597167969 -18.53100204467773 87.32999420166016 -22.02183532714844 88.75 -25.31150245666504 C 90.16999816894531 -28.60116767883301 91.96866607666016 -30.90866851806641 94.14599609375 -32.23400115966797 C 97.93266296386719 -31.38200187683105 100.7016677856445 -29.48866844177246 102.452995300293 -26.55400085449219 C 104.2043304443359 -23.61933517456055 104.9379959106445 -20.18766784667969 104.6539993286133 -16.25900077819824 C 104.4173278808594 -12.47233581542969 103.3286666870117 -9.230003356933594 101.3880004882813 -6.532001495361328 C 99.49466705322266 -3.739334106445313 97.24633026123047 -2.248336791992188 94.64299774169922 -2.059001922607422 C 94.39373779296875 -2.038230895996094 94.15034484863281 -2.027862548828125 93.91201782226563 -2.027862548828125 M 157.1640472412109 -35.020751953125 C 156.9710083007813 -35.020751953125 156.7680053710938 -34.96750259399414 156.5549926757813 -34.86100006103516 C 153.6676635742188 -33.48833465576172 151.3483276367188 -30.86133575439453 149.5970001220703 -26.98000144958496 C 147.79833984375 -23.19333457946777 146.8280029296875 -19.17000198364258 146.6860046386719 -14.90999984741211 C 146.4966735839844 -10.41333389282227 147.2303314208984 -6.792335510253906 148.8869934082031 -4.047000885009766 C 150.6966247558594 -0.9878578186035156 153.2708282470703 0.5415992736816406 156.6100769042969 0.5415992736816406 C 156.939208984375 0.5415992736816406 157.2760009765625 0.5267257690429688 157.6199951171875 0.4969978332519531 C 161.1226654052734 0.2129974365234375 163.9981689453125 -1.573833465576172 166.2464904785156 -4.863502502441406 C 168.4948272705078 -8.153167724609375 169.7610015869141 -11.90433502197266 170.0449981689453 -16.11700248718262 C 170.2343292236328 -18.81500244140625 169.9976654052734 -21.39466857910156 169.3349914550781 -23.85600090026855 C 168.625 -26.2700023651123 167.3114929199219 -28.48283576965332 165.3945007324219 -30.4945011138916 C 163.4774932861328 -32.50616836547852 161.0279998779297 -33.86700057983398 158.0459899902344 -34.57700347900391 C 157.7797546386719 -34.87283325195313 157.4857635498047 -35.020751953125 157.1640472412109 -35.020751953125 M 156.7470092773438 -2.027862548828125 C 154.2699737548828 -2.027862548828125 152.3833618164063 -3.15069580078125 151.0879974365234 -5.395999908447266 C 149.71533203125 -7.715335845947266 149.1000061035156 -10.86300277709961 149.2420043945313 -14.8390007019043 C 149.3840026855469 -18.53100204467773 150.1649932861328 -22.02183532714844 151.5849914550781 -25.31150245666504 C 153.0050048828125 -28.60116767883301 154.8036651611328 -30.90866851806641 156.9810028076172 -32.23400115966797 C 160.7676696777344 -31.38200187683105 163.5366668701172 -29.48866844177246 165.2879943847656 -26.55400085449219 C 167.0393371582031 -23.61933517456055 167.7729949951172 -20.18766784667969 167.4889984130859 -16.25900077819824 C 167.2523345947266 -12.47233581542969 166.1636657714844 -9.230003356933594 164.2229919433594 -6.532001495361328 C 162.3296661376953 -3.739334106445313 160.0813293457031 -2.248336791992188 157.4779968261719 -2.059001922607422 C 157.2287292480469 -2.038230895996094 156.9853515625 -2.027862548828125 156.7470092773438 -2.027862548828125 M 71.56173706054688 -34.9669189453125 C 71.10816955566406 -34.96691131591797 70.64860534667969 -34.94343948364258 70.18349456787109 -34.89649963378906 C 67.60383605957031 -34.63616943359375 65.3909912109375 -33.71316909790039 63.54499816894531 -32.12750244140625 C 61.69900512695313 -30.54183578491211 60.87066650390625 -28.47100067138672 61.05999755859375 -25.91500091552734 C 61.24932861328125 -23.73766899108887 62.38533020019531 -21.56033515930176 64.46800231933594 -19.38300132751465 C 65.22532653808594 -18.57833480834961 67.18966674804688 -16.89800071716309 70.36100006103516 -14.34200286865234 C 72.82233428955078 -12.35400009155273 74.60916137695313 -10.614501953125 75.72149658203125 -9.123500823974609 C 76.83383178710938 -7.632503509521484 77.20066070556641 -5.987667083740234 76.82199859619141 -4.189002990722656 C 76.63266754150391 -3.147666931152344 76.10016632080078 -2.41400146484375 75.22449493408203 -1.988002777099609 C 74.66154479980469 -1.714134216308594 74.00576019287109 -1.577217102050781 73.25696563720703 -1.577217102050781 C 72.84101104736328 -1.577217102050781 72.39629364013672 -1.619483947753906 71.92299652099609 -1.704002380371094 C 70.55033111572266 -1.940670013427734 69.28416442871094 -2.461334228515625 68.12449645996094 -3.266002655029297 C 66.96482849121094 -4.070667266845703 66.1719970703125 -4.993667602539063 65.74600219726563 -6.034999847412109 C 65.60400390625 -6.366336822509766 65.36732482910156 -6.591167449951172 65.03599548339844 -6.709503173828125 C 64.87033081054688 -6.768669128417969 64.70466613769531 -6.798252105712891 64.53900146484375 -6.798252105712891 C 64.37333679199219 -6.798252105712891 64.20765686035156 -6.768669128417969 64.0419921875 -6.709503173828125 C 63.71066284179688 -6.591167449951172 63.48582458496094 -6.366336822509766 63.36749267578125 -6.034999847412109 C 63.24916076660156 -5.703666687011719 63.23733520507813 -5.372333526611328 63.33200073242188 -5.041000366210938 C 63.99465942382813 -3.526336669921875 65.08332824707031 -2.248336791992188 66.59799194335938 -1.207000732421875 C 68.11266326904297 -0.1656684875488281 69.74566650390625 0.5206642150878906 71.49699401855469 0.8519973754882813 C 72.11240386962891 0.9624557495117188 72.70130920410156 1.017665863037109 73.26410675048828 1.017665863037109 C 74.38951110839844 1.017665863037109 75.40994262695313 0.7967491149902344 76.32499694824219 0.3549995422363281 C 77.98166656494141 -0.4496688842773438 78.99932861328125 -1.822334289550781 79.37799835205078 -3.76300048828125 C 79.61466217041016 -5.088333129882813 79.57916259765625 -6.354499816894531 79.27149963378906 -7.561500549316406 C 78.96382904052734 -8.768501281738281 78.37216186523438 -9.928169250488281 77.49649810791016 -11.04050064086914 C 76.62083435058594 -12.15283584594727 75.80432891845703 -13.06400299072266 75.0469970703125 -13.77400207519531 C 74.24233245849609 -14.48400115966797 73.22466278076172 -15.33600234985352 71.99399566650391 -16.33000183105469 C 69.01200103759766 -18.7440013885498 67.09500122070313 -20.35333442687988 66.24299621582031 -21.15800094604492 C 64.6336669921875 -22.90933418273926 63.75799560546875 -24.54233551025391 63.61599731445313 -26.0570011138916 C 63.4739990234375 -27.76100158691406 64.0538330078125 -29.18100166320801 65.35549926757813 -30.31700134277344 C 66.65716552734375 -31.45300102233887 68.34933471679688 -32.13933563232422 70.43199920654297 -32.37599945068359 C 70.80228424072266 -32.40966415405273 71.16535949707031 -32.42649459838867 71.52143859863281 -32.42649078369141 C 73.16808319091797 -32.42647552490234 74.66283416748047 -32.06647872924805 76.00550079345703 -31.34650230407715 C 77.63849639892578 -30.47083473205566 78.64433288574219 -29.13366889953613 79.02299499511719 -27.33500099182129 C 79.11766052246094 -27.0036678314209 79.31883239746094 -26.74333572387695 79.62649536132813 -26.55400085449219 C 79.85026550292969 -26.41629981994629 80.08026123046875 -26.34745597839355 80.31654357910156 -26.34745597839355 C 80.40514373779297 -26.34745597839355 80.49464416503906 -26.35713958740234 80.58499908447266 -26.37650108337402 C 80.91632843017578 -26.44750213623047 81.17666625976563 -26.6368350982666 81.36599731445313 -26.94450187683105 C 81.55532836914063 -27.25216865539551 81.62632751464844 -27.57166862487793 81.57899475097656 -27.90300178527832 C 81.01099395751953 -30.4590015411377 79.61466217041016 -32.32866668701172 77.38999938964844 -33.51200103759766 C 75.56643676757813 -34.48198318481445 73.62383270263672 -34.96695709228516 71.56173706054688 -34.9669189453125 M 181.6117401123047 -34.9669189453125 C 181.1581726074219 -34.96691131591797 180.6986083984375 -34.94343948364258 180.2334899902344 -34.89649963378906 C 177.6538391113281 -34.63616943359375 175.4409942626953 -33.71316909790039 173.5950012207031 -32.12750244140625 C 171.7489929199219 -30.54183578491211 170.9206695556641 -28.47100067138672 171.1100006103516 -25.91500091552734 C 171.2993316650391 -23.73766899108887 172.4353332519531 -21.56033515930176 174.5180053710938 -19.38300132751465 C 175.2753295898438 -18.57833480834961 177.2396697998047 -16.89800071716309 180.4109954833984 -14.34200286865234 C 182.8723297119141 -12.35400009155273 184.6591644287109 -10.614501953125 185.7714996337891 -9.123500823974609 C 186.8838348388672 -7.632503509521484 187.2506713867188 -5.987667083740234 186.8719940185547 -4.189002990722656 C 186.6826629638672 -3.147666931152344 186.1501617431641 -2.41400146484375 185.2745056152344 -1.988002777099609 C 184.7115478515625 -1.714134216308594 184.0557556152344 -1.577217102050781 183.3069610595703 -1.577217102050781 C 182.8910064697266 -1.577217102050781 182.4462890625 -1.619483947753906 181.9729919433594 -1.704002380371094 C 180.6003265380859 -1.940670013427734 179.3341674804688 -2.461334228515625 178.1744995117188 -3.266002655029297 C 177.0148315429688 -4.070667266845703 176.2220001220703 -4.993667602539063 175.7959899902344 -6.034999847412109 C 175.6539916992188 -6.366336822509766 175.4173278808594 -6.591167449951172 175.0859985351563 -6.709503173828125 C 174.9203338623047 -6.768669128417969 174.7546691894531 -6.798252105712891 174.5889892578125 -6.798252105712891 C 174.4233245849609 -6.798252105712891 174.2576599121094 -6.768669128417969 174.0919952392578 -6.709503173828125 C 173.7606658935547 -6.591167449951172 173.5358276367188 -6.366336822509766 173.4174957275391 -6.034999847412109 C 173.2991638183594 -5.703666687011719 173.2873229980469 -5.372333526611328 173.3820037841797 -5.041000366210938 C 174.0446624755859 -3.526336669921875 175.1333312988281 -2.248336791992188 176.6479949951172 -1.207000732421875 C 178.1626586914063 -0.1656684875488281 179.7956695556641 0.5206642150878906 181.5469970703125 0.8519973754882813 C 182.1623992919922 0.9624557495117188 182.7513122558594 1.017665863037109 183.3141021728516 1.017665863037109 C 184.4395141601563 1.017665863037109 185.4599456787109 0.7967491149902344 186.375 0.3549995422363281 C 188.0316619873047 -0.4496688842773438 189.0493316650391 -1.822334289550781 189.4279937744141 -3.76300048828125 C 189.6646575927734 -5.088333129882813 189.6291656494141 -6.354499816894531 189.3215026855469 -7.561500549316406 C 189.0138244628906 -8.768501281738281 188.4221649169922 -9.928169250488281 187.5464935302734 -11.04050064086914 C 186.6708374023438 -12.15283584594727 185.8543243408203 -13.06400299072266 185.0970001220703 -13.77400207519531 C 184.2923278808594 -14.48400115966797 183.274658203125 -15.33600234985352 182.0439910888672 -16.33000183105469 C 179.0619964599609 -18.7440013885498 177.1449890136719 -20.35333442687988 176.2929992675781 -21.15800094604492 C 174.6836700439453 -22.90933418273926 173.8079986572266 -24.54233551025391 173.6660003662109 -26.0570011138916 C 173.5240020751953 -27.76100158691406 174.1038360595703 -29.18100166320801 175.4055023193359 -30.31700134277344 C 176.7071685791016 -31.45300102233887 178.3993225097656 -32.13933563232422 180.4819946289063 -32.37599945068359 C 180.8522796630859 -32.40966415405273 181.2153625488281 -32.42649459838867 181.5714416503906 -32.42649078369141 C 183.2180786132813 -32.42647552490234 184.7128295898438 -32.06647872924805 186.0554962158203 -31.34650230407715 C 187.6884918212891 -30.47083473205566 188.6943359375 -29.13366889953613 189.072998046875 -27.33500099182129 C 189.1676635742188 -27.0036678314209 189.3688354492188 -26.74333572387695 189.6764984130859 -26.55400085449219 C 189.9002685546875 -26.41629981994629 190.1302642822266 -26.34745597839355 190.3665466308594 -26.34745597839355 C 190.4551391601563 -26.34745597839355 190.5446472167969 -26.35713958740234 190.6349945068359 -26.37650108337402 C 190.9663238525391 -26.44750213623047 191.2266693115234 -26.6368350982666 191.4160003662109 -26.94450187683105 C 191.6053314208984 -27.25216865539551 191.6763305664063 -27.57166862487793 191.6289978027344 -27.90300178527832 C 191.0610046386719 -30.4590015411377 189.6646575927734 -32.32866668701172 187.4400024414063 -33.51200103759766 C 185.6164398193359 -34.48198318481445 183.673828125 -34.96695709228516 181.6117401123047 -34.9669189453125 M 32.802001953125 -60.41000366210938 L 40.76055908203125 -57.09056854248047 L 44.08000183105469 -49.13199996948242 L 44.07283020019531 -44.32077789306641 L 47.11402893066406 -45.02076721191406 L 50.1556396484375 -43.64754867553711 L 50.31219482421875 -44.30506896972656 C 53.32191467285156 -43.58846664428711 56.04621887207031 -42.42898559570313 58.45785522460938 -40.84201812744141 C 61.56840515136719 -43.09613418579102 65.16654968261719 -44.44100570678711 69.17942810058594 -44.84597015380859 C 69.98313140869141 -44.92706680297852 70.77726745605469 -44.96686935424805 71.56099700927734 -44.96693420410156 L 71.56156158447266 -44.96693420410156 C 75.26886749267578 -44.96700286865234 78.80979919433594 -44.08343505859375 82.08606719970703 -42.34076690673828 C 82.97367095947266 -41.86863708496094 83.81002044677734 -41.33356094360352 84.59090423583984 -40.74094772338867 C 86.06603240966797 -42.00771331787109 87.68071746826172 -43.06241989135742 89.42639923095703 -43.892333984375 L 94.32903289794922 -45.02076721191406 L 97.37064361572266 -43.64754867553711 L 97.52719879150391 -44.30506896972656 C 98.07875061035156 -44.17374420166016 98.62059020996094 -44.027587890625 99.15279388427734 -43.86661911010742 L 99.38749694824219 -44.7660026550293 C 100.3878479003906 -46.09979629516602 101.6420364379883 -47.17140960693359 103.0710067749023 -47.93512725830078 C 103.0858383178711 -48.35903549194336 103.0975036621094 -48.74469757080078 103.1059646606445 -49.09183502197266 L 106.7667617797852 -57.09940338134766 C 108.8632965087891 -59.00533294677734 111.5800323486328 -60.05500030517578 114.4164962768555 -60.05500030517578 L 122.7033996582031 -56.3912353515625 C 124.6093292236328 -54.29470062255859 125.6589965820313 -51.56536865234375 125.6589965820313 -48.70600128173828 C 125.6516799926758 -48.38188171386719 125.6425094604492 -48.04065322875977 125.631462097168 -47.68143081665039 C 126.6457672119141 -47.10086822509766 127.5395355224609 -46.37839126586914 128.3124084472656 -45.52823638916016 L 130.4775543212891 -38.58317565917969 L 130.8248291015625 -38.42964172363281 C 133.4479217529297 -41.07049179077148 136.4631958007813 -43.13657379150391 139.8695373535156 -44.64430236816406 L 144.4004974365234 -45.61566162109375 L 144.4004974365234 -45.61616897583008 L 144.4017944335938 -45.61594009399414 L 144.4028625488281 -45.61616897583008 L 144.4028625488281 -45.61575698852539 L 148.2034912109375 -44.9528694152832 L 150.4364013671875 -42.91464996337891 C 151.0276794433594 -43.26899719238281 151.6360626220703 -43.59504318237305 152.2613983154297 -43.892333984375 L 157.1640319824219 -45.02076721191406 L 160.2056427001953 -43.64754867553711 L 160.3621978759766 -44.30506896972656 C 163.3719177246094 -43.58846664428711 166.0962219238281 -42.42898559570313 168.5078582763672 -40.84201812744141 C 171.618408203125 -43.09613418579102 175.2165374755859 -44.44100570678711 179.2294311523438 -44.84597015380859 C 180.0331268310547 -44.92706680297852 180.8272705078125 -44.96686935424805 181.6109924316406 -44.96693420410156 L 181.611572265625 -44.96693420410156 C 185.3188629150391 -44.96700286865234 188.8598022460938 -44.08343505859375 192.1360626220703 -42.34076690673828 C 196.9103698730469 -39.80123519897461 200.1970977783203 -35.44423675537109 201.390869140625 -30.07230186462402 L 199.9325714111328 -21.70353507995605 C 198.7768707275391 -19.82551383972168 197.1525268554688 -18.36697578430176 195.2284393310547 -17.44754028320313 C 195.2867889404297 -17.37435722351074 195.3452301025391 -17.30059242248535 195.4038696289063 -17.22610092163086 C 197.14453125 -15.01496887207031 198.3583679199219 -12.59436798095703 199.0116271972656 -10.03153610229492 C 199.6725921630859 -7.438503265380859 199.7602996826172 -4.738033294677734 199.2722625732422 -2.005100250244141 C 198.2601623535156 3.188564300537109 195.2418975830078 7.165397644042969 190.7440338134766 9.350063323974609 C 188.44482421875 10.46009826660156 185.9522247314453 11.01766586303711 183.3141021728516 11.01766586303711 C 182.1888275146484 11.01766586303711 181.0106353759766 10.91556549072266 179.7801971435547 10.69469833374023 C 176.5712585449219 10.08803176879883 173.642333984375 8.861930847167969 170.9826965332031 7.033432006835938 C 170.5248107910156 6.718624114990234 170.0845947265625 6.390369415283203 169.6622314453125 6.048892974853516 C 166.43212890625 8.619480133056641 162.6343841552734 10.12324142456055 158.4281616210938 10.46429824829102 C 157.8438262939453 10.51493072509766 157.2198333740234 10.54159927368164 156.6100616455078 10.54159927368164 C 149.9503326416016 10.54159927368164 144.3204040527344 7.406021118164063 140.6782684326172 1.692630767822266 L 139.0659942626953 6.425998687744141 C 136.617919921875 9.384181976318359 133.4828186035156 10.85092163085938 130.1466064453125 10.85199737548828 L 129.986572265625 10.86086654663086 C 129.2248992919922 10.86086654663086 128.4720001220703 10.78285217285156 127.7384033203125 10.63158416748047 C 125.1909866333008 11.78242492675781 122.8768463134766 12.27999877929688 120.5639343261719 12.27999877929688 C 116.6881637573242 12.27999877929688 113.0074005126953 10.87636566162109 109.9195938110352 8.220832824707031 C 108.9922943115234 7.409564971923828 108.1554412841797 6.525558471679688 107.4086761474609 5.569400787353516 C 104.0563888549805 8.432636260986328 100.0543746948242 10.10256576538086 95.59316253662109 10.46429824829102 C 95.00882720947266 10.51493072509766 94.38483428955078 10.54159927368164 93.77506256103516 10.54159927368164 C 89.96920776367188 10.54159927368164 86.49968719482422 9.517681121826172 83.54533386230469 7.573867797851563 C 82.67681884765625 8.255229949951172 81.72406005859375 8.849769592285156 80.69403076171875 9.350063323974609 C 78.39482879638672 10.46009826660156 75.90222930908203 11.01766586303711 73.26409912109375 11.01766586303711 C 72.13883209228516 11.01766586303711 70.96063232421875 10.91556549072266 69.73019409179688 10.69469833374023 C 66.52127075195313 10.08803176879883 63.59233093261719 8.861930847167969 60.93269348144531 7.033432006835938 C 60.47480773925781 6.718624114990234 60.03459167480469 6.390369415283203 59.61222839355469 6.048892974853516 C 56.38214111328125 8.619480133056641 52.58438110351563 10.12324142456055 48.37815856933594 10.46429824829102 C 47.79383850097656 10.51493072509766 47.16983032226563 10.54159927368164 46.56005859375 10.54159927368164 C 43.07293701171875 10.54159927368164 39.86801147460938 9.681915283203125 37.08319091796875 8.042747497558594 L 32.73100280761719 9.857997894287109 C 28.37850952148438 9.857997894287109 24.60182189941406 7.513965606689453 22.70053100585938 3.760456085205078 C 20.58000183105469 0.3897132873535156 18.5252685546875 -2.913936614990234 16.54000854492188 -6.144371032714844 L 16.53199768066406 -1.207000732421875 L 13.21257019042969 6.751564025878906 C 11.07199096679688 8.892131805419922 8.245590209960938 10.07099914550781 5.253997802734375 10.07099914550781 L -2.704574584960938 6.751564025878906 C -4.845138549804688 4.611000061035156 -6.024002075195313 1.784599304199219 -6.024002075195313 -1.207000732421875 L -5.98846435546875 -24.58883476257324 L -5.9530029296875 -47.92500305175781 L -2.633575439453125 -55.88356781005859 C -0.4929962158203125 -58.02413558959961 2.333404541015625 -59.2030029296875 5.324996948242188 -59.2030029296875 C 9.510177612304688 -59.2030029296875 13.16300964355469 -57.03562545776367 15.12802124023438 -53.53193283081055 C 15.87237548828125 -52.4777946472168 16.58787536621094 -51.34452056884766 17.27127075195313 -50.12960052490234 C 17.99496459960938 -48.84303665161133 18.7330322265625 -47.43636703491211 19.48353576660156 -45.90853500366211 C 20.02426147460938 -44.80776977539063 20.44343566894531 -43.98410034179688 20.75242614746094 -43.44340133666992 C 21.00372314453125 -42.99240875244141 21.25752258300781 -42.53847503662109 21.51280212402344 -42.08339691162109 L 21.52400207519531 -49.13199996948242 L 24.84342956542969 -57.09056854248047 C 26.98399353027344 -59.23113632202148 29.81039428710938 -60.41000366210938 32.802001953125 -60.41000366210938 Z" stroke="none" fill="#1c4d9a"/></g></svg>