<svg xmlns="http://www.w3.org/2000/svg" width="26.514" height="26.514" viewBox="0 0 26.514 26.514"><path d="M22.543,35.853A13.143,13.143,0,0,0,1.864,51.708L0,58.514l6.966-1.829a13.1,13.1,0,0,0,6.279,1.6h.006a13.055,13.055,0,0,0,9.292-22.431ZM13.251,56.07a10.9,10.9,0,0,1-5.563-1.521l-.4-.237L3.16,55.4l1.1-4.03L4,50.951a10.942,10.942,0,1,1,20.294-5.806A11.042,11.042,0,0,1,13.251,56.07Zm5.989-8.179c-.326-.166-1.941-.959-2.243-1.065s-.521-.166-.74.166-.846,1.065-1.042,1.29-.385.249-.71.083a8.936,8.936,0,0,1-4.468-3.906c-.337-.58.337-.539.965-1.793a.608.608,0,0,0-.03-.574c-.083-.166-.74-1.781-1.012-2.438-.266-.639-.539-.55-.74-.562s-.408-.012-.627-.012a1.216,1.216,0,0,0-.876.408,3.689,3.689,0,0,0-1.148,2.74,6.432,6.432,0,0,0,1.338,3.4,14.67,14.67,0,0,0,5.611,4.96c2.083.9,2.9.977,3.942.823a3.363,3.363,0,0,0,2.213-1.562,2.746,2.746,0,0,0,.189-1.562C19.785,48.133,19.566,48.051,19.241,47.891Z" transform="translate(0 -32)" fill="#fff"/></svg>