<svg xmlns="http://www.w3.org/2000/svg" width="30.759" height="26.959" viewBox="0 0 30.759 26.959"><g fill="#fff"><path d="M15.577 9.515a3.138 3.138 0 1 0 3.138 3.138 3.138 3.138 0 0 0-3.138-3.138zm0 4.781a1.644 1.644 0 0 1 0-3.287 1.644 1.644 0 1 1 0 3.287z"/><path d="M28.09 2.343L7.7.024a2.8 2.8 0 0 0-2.2.635 2.839 2.839 0 0 0-1.083 1.942l-.373 3.063H2.877A3 3 0 0 0 0 8.768v15.277a2.839 2.839 0 0 0 2.763 2.913h20.62a3.066 3.066 0 0 0 3.138-2.914v-.6a3.735 3.735 0 0 0 1.419-.6 3.1 3.1 0 0 0 1.083-2.017l1.718-15.165a3.026 3.026 0 0 0-2.651-3.319zm-3.063 21.7a1.573 1.573 0 0 1-1.644 1.419H2.877a1.345 1.345 0 0 1-1.384-1.3v-2.881l5.792-4.257a1.793 1.793 0 0 1 2.316.112l4.071 3.588a3.511 3.511 0 0 0 2.2.822 3.4 3.4 0 0 0 1.793-.486l7.358-4.258v7.246zm0-9l-8.143 4.744a1.9 1.9 0 0 1-2.2-.187l-4.109-3.623a3.324 3.324 0 0 0-4.149-.153l-4.931 3.59V8.768a1.508 1.508 0 0 1 1.382-1.606h20.507a1.718 1.718 0 0 1 1.644 1.606v6.275zm4.222-9.577v.015l-1.757 15.165a1.27 1.27 0 0 1-.486 1.009c-.149.149-.486.224-.486.3V8.768a3.212 3.212 0 0 0-3.138-3.1H5.529l.336-2.913a1.718 1.718 0 0 1 .56-.971 1.718 1.718 0 0 1 1.121-.3L27.9 3.838a1.494 1.494 0 0 1 1.349 1.628z"/></g></svg>