<svg xmlns="http://www.w3.org/2000/svg" width="30.759" height="26.959" viewBox="0 0 30.759 26.959"><g transform="translate(0 0)"><g transform="translate(0 0)"><path d="M177.127,159.668a3.138,3.138,0,1,0,3.138,3.138A3.138,3.138,0,0,0,177.127,159.668Zm0,4.781a1.644,1.644,0,0,1,0-3.287h0a1.644,1.644,0,1,1,0,3.287Z" transform="translate(-161.55 -150.153)" fill="#fff"/><path d="M28.09,28.919,7.7,26.6a2.8,2.8,0,0,0-2.2.635,2.839,2.839,0,0,0-1.083,1.942l-.373,3.063H2.877A3,3,0,0,0,0,35.344V50.621a2.839,2.839,0,0,0,2.763,2.913h20.62a3.066,3.066,0,0,0,3.138-2.914v-.6a3.735,3.735,0,0,0,1.419-.6,3.1,3.1,0,0,0,1.083-2.017l1.718-15.165A3.026,3.026,0,0,0,28.09,28.919Zm-3.063,21.7a1.573,1.573,0,0,1-1.644,1.419H2.877a1.345,1.345,0,0,1-1.384-1.3q0-.057,0-.115V47.857L7.285,43.6a1.793,1.793,0,0,1,2.316.112L13.672,47.3a3.511,3.511,0,0,0,2.2.822,3.4,3.4,0,0,0,1.793-.486l7.358-4.258v7.246Zm0-9-8.143,4.744a1.9,1.9,0,0,1-2.2-.187l-4.109-3.623A3.324,3.324,0,0,0,6.426,42.4L1.495,45.99V35.344a1.508,1.508,0,0,1,1.382-1.606H23.384a1.718,1.718,0,0,1,1.644,1.606v6.275Zm4.222-9.577,0,.015L27.492,47.222a1.27,1.27,0,0,1-.486,1.009c-.149.149-.486.224-.486.3V35.344a3.212,3.212,0,0,0-3.138-3.1H5.529l.336-2.913a1.718,1.718,0,0,1,.56-.971,1.718,1.718,0,0,1,1.121-.3L27.9,30.414A1.494,1.494,0,0,1,29.249,32.042Z" transform="translate(0 -26.576)" fill="#fff"/></g></g></svg>